<svg xmlns="http://www.w3.org/2000/svg" xmlns:xlink="http://www.w3.org/1999/xlink" width="1300" zoomAndPan="magnify" viewBox="0 0 974.88 599.999999" height="800" preserveAspectRatio="xMidYMid meet" version="1.0"><defs><g/><clipPath id="bc4393ce6d"><path d="M 0 0.0351562 L 974.761719 0.0351562 L 974.761719 599.960938 L 0 599.960938 Z M 0 0.0351562 " clip-rule="nonzero"/></clipPath><clipPath id="99da5fc04f"><path d="M 0 0.0351562 L 974.761719 0.0351562 L 974.761719 95 L 0 95 Z M 0 0.0351562 " clip-rule="nonzero"/></clipPath><clipPath id="f1817865a3"><path d="M 998.648438 90.421875 L 2.023438 145.171875 L -8.097656 -39.03125 L 988.527344 -93.777344 Z M 998.648438 90.421875 " clip-rule="nonzero"/></clipPath><clipPath id="d2fdeb00cc"><path d="M 998.648438 90.421875 L 2.023438 145.171875 L -8.097656 -39.03125 L 988.527344 -93.777344 Z M 998.648438 90.421875 " clip-rule="nonzero"/></clipPath><clipPath id="651e1920d7"><path d="M 998.648438 90.421875 L 2.023438 145.171875 L -8.097656 -39.03125 L 988.527344 -93.777344 Z M 998.648438 90.421875 " clip-rule="nonzero"/></clipPath></defs><g clip-path="url(#bc4393ce6d)"><path fill="#ffffff" d="M 0 0.0351562 L 974.878906 0.0351562 L 974.878906 607.460938 L 0 607.460938 Z M 0 0.0351562 " fill-opacity="1" fill-rule="nonzero"/><path fill="#ffffff" d="M 0 0.0351562 L 974.878906 0.0351562 L 974.878906 599.964844 L 0 599.964844 Z M 0 0.0351562 " fill-opacity="1" fill-rule="nonzero"/><path fill="#fffefe" d="M 0 0.0351562 L 974.878906 0.0351562 L 974.878906 599.964844 L 0 599.964844 Z M 0 0.0351562 " fill-opacity="1" fill-rule="nonzero"/></g><g clip-path="url(#99da5fc04f)"><g clip-path="url(#f1817865a3)"><g clip-path="url(#d2fdeb00cc)"><g clip-path="url(#651e1920d7)"><path fill="#f4b6e6" d="M 995.898438 60.816406 L 954.871094 70.476562 C 913.828125 79.855469 831.796875 99.585938 748.3125 92.894531 C 664.851562 86.613281 579.941406 53.914062 495.671875 32.941406 C 411.40625 11.964844 327.707031 1.339844 244.851562 6.101562 C 161.976562 10.445312 79.945312 30.175781 38.902344 39.554688 L -2.125 49.214844 L -6.976562 -39.089844 L 34.457031 -41.367188 C 75.890625 -43.644531 158.753906 -48.195312 241.621094 -52.746094 C 324.484375 -57.300781 407.351562 -61.851562 490.214844 -66.402344 C 573.082031 -70.957031 655.945312 -75.507812 738.8125 -80.0625 C 821.675781 -84.613281 904.542969 -89.164062 945.976562 -91.441406 L 987.40625 -93.71875 Z M 995.898438 60.816406 " fill-opacity="1" fill-rule="nonzero"/></g></g></g></g><g fill="#ffa7e4" fill-opacity="1"><g transform="translate(389.469678, 73.206502)"><g/></g></g></svg>