<svg xmlns="http://www.w3.org/2000/svg" xmlns:xlink="http://www.w3.org/1999/xlink" width="1300" zoomAndPan="magnify" viewBox="0 0 974.88 599.999999" height="800" preserveAspectRatio="xMidYMid meet" version="1.0"><defs><g/><clipPath id="fda4f0526a"><path d="M 0 0.0351562 L 974.761719 0.0351562 L 974.761719 599.960938 L 0 599.960938 Z M 0 0.0351562 " clip-rule="nonzero"/></clipPath><clipPath id="64c0282663"><path d="M 0 340 L 974.761719 340 L 974.761719 599.960938 L 0 599.960938 Z M 0 340 " clip-rule="nonzero"/></clipPath></defs><g clip-path="url(#fda4f0526a)"><path fill="#ffffff" d="M 0 0.0351562 L 974.878906 0.0351562 L 974.878906 607.460938 L 0 607.460938 Z M 0 0.0351562 " fill-opacity="1" fill-rule="nonzero"/><path fill="#ffffff" d="M 0 0.0351562 L 974.878906 0.0351562 L 974.878906 599.964844 L 0 599.964844 Z M 0 0.0351562 " fill-opacity="1" fill-rule="nonzero"/><path fill="#fffefe" d="M 0 0.0351562 L 974.878906 0.0351562 L 974.878906 599.964844 L 0 599.964844 Z M 0 0.0351562 " fill-opacity="1" fill-rule="nonzero"/></g><g clip-path="url(#64c0282663)"><path fill="#f4b6e6" d="M 584.179688 383.402344 C 637.484375 372.722656 691.039062 363.296875 744.785156 355.136719 C 911.867188 329.773438 1124.726562 321.488281 1237.871094 473.179688 C 1271.878906 518.78125 1311.546875 631.253906 1263.980469 680 C 1217.273438 727.863281 1084.484375 701.582031 1023.667969 702.53125 C 825.8125 705.613281 627.945312 708.042969 430.074219 709.820312 C 340.105469 709.820312 250.515625 701.332031 161.140625 691.769531 C 113.148438 686.636719 59.847656 695.828125 14.011719 677.246094 C -51.070312 650.871094 -32.5 597.148438 16.398438 559.328125 C 44.039062 537.949219 77.386719 525.496094 110.335938 513.855469 C 264.933594 459.234375 423.414062 415.617188 584.179688 383.402344 Z M 584.179688 383.402344 " fill-opacity="1" fill-rule="nonzero"/></g><g fill="#ffa7e4" fill-opacity="1"><g transform="translate(389.469678, 73.206502)"><g/></g></g></svg>