<svg xmlns="http://www.w3.org/2000/svg" xmlns:xlink="http://www.w3.org/1999/xlink" width="1300" zoomAndPan="magnify" viewBox="0 0 974.88 599.999999" height="800" preserveAspectRatio="xMidYMid meet" version="1.0"><defs><clipPath id="fb6081c5af"><path d="M 0 0.0351562 L 974.761719 0.0351562 L 974.761719 599.960938 L 0 599.960938 Z M 0 0.0351562 " clip-rule="nonzero"/></clipPath><clipPath id="ce9a9c8a92"><path d="M 0 3 L 816 3 L 816 285.09375 L 0 285.09375 Z M 0 3 " clip-rule="nonzero"/></clipPath><clipPath id="80fc033235"><path d="M 0 0.0351562 L 974.761719 0.0351562 L 974.761719 203 L 0 203 Z M 0 0.0351562 " clip-rule="nonzero"/></clipPath></defs><g clip-path="url(#fb6081c5af)"><path fill="#ffffff" d="M 0 0.0351562 L 974.878906 0.0351562 L 974.878906 607.460938 L 0 607.460938 Z M 0 0.0351562 " fill-opacity="1" fill-rule="nonzero"/><path fill="#ffffff" d="M 0 0.0351562 L 974.878906 0.0351562 L 974.878906 599.964844 L 0 599.964844 Z M 0 0.0351562 " fill-opacity="1" fill-rule="nonzero"/><path fill="#fffefe" d="M 0 0.0351562 L 974.878906 0.0351562 L 974.878906 599.964844 L 0 599.964844 Z M 0 0.0351562 " fill-opacity="1" fill-rule="nonzero"/></g><g clip-path="url(#ce9a9c8a92)"><path fill="#809bd1" d="M 661.429688 51.703125 L 815.464844 199.140625 C 815.464844 199.140625 565.386719 106.523438 300.839844 106.523438 C 36.296875 106.523438 -12.679688 285.09375 -12.679688 285.09375 L -12.679688 26.523438 L 207.894531 3.664062 Z M 661.429688 51.703125 " fill-opacity="1" fill-rule="nonzero"/></g><g clip-path="url(#80fc033235)"><path fill="#f4b6e6" d="M 1059.792969 139.378906 C 1059.792969 139.378906 1027.210938 164.105469 975.910156 182.984375 C 838.867188 233.4375 711.242188 177.292969 585.84375 120.65625 C 477.546875 71.726562 367.808594 39.378906 247.933594 39.378906 C 29.148438 39.378906 -12.679688 106.523438 -12.679688 106.523438 L -12.679688 -23.121094 L 1059.792969 -23.121094 Z M 1059.792969 139.378906 " fill-opacity="1" fill-rule="nonzero"/></g></svg>