<svg xmlns="http://www.w3.org/2000/svg" xmlns:xlink="http://www.w3.org/1999/xlink" width="1300" zoomAndPan="magnify" viewBox="0 0 974.88 599.999999" height="800" preserveAspectRatio="xMidYMid meet" version="1.0"><defs><g/><clipPath id="6038165317"><path d="M 0 0.0351562 L 974.761719 0.0351562 L 974.761719 599.960938 L 0 599.960938 Z M 0 0.0351562 " clip-rule="nonzero"/></clipPath><clipPath id="b6f2d93e5e"><path d="M 1 426 L 974 426 L 974 599.960938 L 1 599.960938 Z M 1 426 " clip-rule="nonzero"/></clipPath></defs><g clip-path="url(#6038165317)"><path fill="#ffffff" d="M 0 0.0351562 L 974.878906 0.0351562 L 974.878906 607.460938 L 0 607.460938 Z M 0 0.0351562 " fill-opacity="1" fill-rule="nonzero"/><path fill="#ffffff" d="M 0 0.0351562 L 974.878906 0.0351562 L 974.878906 599.964844 L 0 599.964844 Z M 0 0.0351562 " fill-opacity="1" fill-rule="nonzero"/><path fill="#fffefe" d="M 0 0.0351562 L 974.878906 0.0351562 L 974.878906 599.964844 L 0 599.964844 Z M 0 0.0351562 " fill-opacity="1" fill-rule="nonzero"/></g><g clip-path="url(#b6f2d93e5e)"><path fill="#f4b6e6" d="M 1.09375 448.714844 L 41.625 441.472656 C 82.152344 434.5 163.210938 419.609375 244.269531 430.644531 C 325.324219 441.269531 406.382812 477.820312 487.441406 502.867188 C 568.496094 527.910156 649.554688 542.804688 730.613281 542.601562 C 811.667969 542.804688 892.726562 527.910156 933.257812 520.941406 L 973.785156 513.695312 L 973.785156 600.339844 L 933.257812 600.339844 C 892.726562 600.339844 811.667969 600.339844 730.613281 600.339844 C 649.554688 600.339844 568.496094 600.339844 487.441406 600.339844 C 406.382812 600.339844 325.324219 600.339844 244.269531 600.339844 C 163.210938 600.339844 82.152344 600.339844 41.625 600.339844 L 1.09375 600.339844 Z M 1.09375 448.714844 " fill-opacity="1" fill-rule="nonzero"/></g><g fill="#ffa7e4" fill-opacity="1"><g transform="translate(389.469678, 73.206502)"><g/></g></g></svg>