<svg xmlns="http://www.w3.org/2000/svg" xmlns:xlink="http://www.w3.org/1999/xlink" width="1300" zoomAndPan="magnify" viewBox="0 0 974.88 599.999999" height="800" preserveAspectRatio="xMidYMid meet" version="1.0"><defs><clipPath id="48a5bb39c3"><path d="M 0 0.0351562 L 974.761719 0.0351562 L 974.761719 599.960938 L 0 599.960938 Z M 0 0.0351562 " clip-rule="nonzero"/></clipPath><clipPath id="568ff9c0c7"><path d="M 483 0.0351562 L 974.761719 0.0351562 L 974.761719 173 L 483 173 Z M 483 0.0351562 " clip-rule="nonzero"/></clipPath><clipPath id="a057bb738a"><path d="M 998.035156 -0.863281 L 827.390625 343.085938 L 483.441406 172.4375 L 654.089844 -171.507812 Z M 998.035156 -0.863281 " clip-rule="nonzero"/></clipPath><clipPath id="739f50f8e7"><path d="M 998.035156 -0.863281 L 827.390625 343.085938 L 483.441406 172.4375 L 654.089844 -171.507812 Z M 998.035156 -0.863281 " clip-rule="nonzero"/></clipPath><clipPath id="d0681fe19b"><path d="M 998.035156 -0.863281 L 827.390625 343.085938 L 483.441406 172.4375 L 654.089844 -171.507812 Z M 998.035156 -0.863281 " clip-rule="nonzero"/></clipPath><clipPath id="6c89eb28da"><path d="M 0 0.0351562 L 483 0.0351562 L 483 173 L 0 173 Z M 0 0.0351562 " clip-rule="nonzero"/></clipPath><clipPath id="eb3f837a2c"><path d="M 138.640625 343.304688 L -31.835938 -0.730469 L 312.199219 -171.203125 L 482.671875 172.828125 Z M 138.640625 343.304688 " clip-rule="nonzero"/></clipPath><clipPath id="5e5263f340"><path d="M -31.984375 -1.03125 L 138.488281 343 L 482.523438 172.523438 L 312.046875 -171.507812 Z M -31.984375 -1.03125 " clip-rule="nonzero"/></clipPath><clipPath id="468307521f"><path d="M -31.984375 -1.03125 L 138.488281 343 L 482.523438 172.523438 L 312.046875 -171.507812 Z M -31.984375 -1.03125 " clip-rule="nonzero"/></clipPath><clipPath id="41ce3de80d"><path d="M 261 0.0351562 L 797 0.0351562 L 797 172 L 261 172 Z M 261 0.0351562 " clip-rule="nonzero"/></clipPath><clipPath id="3fe7ed2cae"><path d="M 261.46875 -142.414062 L 575.488281 -363.347656 L 796.421875 -49.332031 L 482.40625 171.605469 Z M 261.46875 -142.414062 " clip-rule="nonzero"/></clipPath><clipPath id="afd117b4d3"><path d="M 261.46875 -142.414062 L 575.488281 -363.347656 L 796.421875 -49.332031 L 482.40625 171.605469 Z M 261.46875 -142.414062 " clip-rule="nonzero"/></clipPath><clipPath id="d4f509a68e"><path d="M 261.46875 -142.414062 L 575.488281 -363.347656 L 796.421875 -49.332031 L 482.40625 171.605469 Z M 261.46875 -142.414062 " clip-rule="nonzero"/></clipPath></defs><g clip-path="url(#48a5bb39c3)"><path fill="#ffffff" d="M 0 0.0351562 L 974.878906 0.0351562 L 974.878906 607.460938 L 0 607.460938 Z M 0 0.0351562 " fill-opacity="1" fill-rule="nonzero"/><path fill="#ffffff" d="M 0 0.0351562 L 974.878906 0.0351562 L 974.878906 599.964844 L 0 599.964844 Z M 0 0.0351562 " fill-opacity="1" fill-rule="nonzero"/><path fill="#ffffff" d="M 0 0.0351562 L 974.878906 0.0351562 L 974.878906 599.964844 L 0 599.964844 Z M 0 0.0351562 " fill-opacity="1" fill-rule="nonzero"/></g><g clip-path="url(#568ff9c0c7)"><g clip-path="url(#a057bb738a)"><g clip-path="url(#739f50f8e7)"><g clip-path="url(#d0681fe19b)"><path fill="#030405" d="M 483.449219 172.445312 L 654.09375 -171.496094 L 998.035156 -0.851562 Z M 483.449219 172.445312 " fill-opacity="1" fill-rule="nonzero"/></g></g></g></g><g clip-path="url(#6c89eb28da)"><g clip-path="url(#eb3f837a2c)"><g clip-path="url(#5e5263f340)"><g clip-path="url(#468307521f)"><path fill="#030405" d="M 482.515625 172.527344 L 312.042969 -171.496094 L -31.984375 -1.023438 Z M 482.515625 172.527344 " fill-opacity="1" fill-rule="nonzero"/></g></g></g></g><g clip-path="url(#41ce3de80d)"><g clip-path="url(#3fe7ed2cae)"><g clip-path="url(#afd117b4d3)"><g clip-path="url(#d4f509a68e)"><path fill="#030405" d="M 796.417969 -49.339844 L 482.410156 171.589844 L 261.476562 -142.425781 Z M 796.417969 -49.339844 " fill-opacity="1" fill-rule="nonzero"/></g></g></g></g></svg>