<svg xmlns="http://www.w3.org/2000/svg" xmlns:xlink="http://www.w3.org/1999/xlink" width="150" zoomAndPan="magnify" viewBox="0 0 112.5 112.499997" height="150" preserveAspectRatio="xMidYMid meet" version="1.0"><defs><clipPath id="5427902ad9"><path d="M 0 1.355469 L 112.003906 1.355469 L 112.003906 110.855469 L 0 110.855469 Z M 0 1.355469 " clip-rule="nonzero"/></clipPath></defs><g clip-path="url(#5427902ad9)"><path fill="#f4b6e6" d="M 68.605469 89.316406 C 66.949219 86.519531 65.085938 84.027344 63.363281 82.300781 C 61.1875 80.125 59.289062 79.214844 57.726562 79.605469 C 53.746094 80.589844 50.019531 82.917969 47.304688 86.078125 C 46.488281 85.015625 45.671875 83.921875 44.863281 82.816406 C 45.128906 82.347656 45.375 81.867188 45.59375 81.375 C 46.625 79.035156 46.769531 76.710938 45.996094 74.824219 C 45.671875 74.046875 45.195312 73.371094 44.566406 72.804688 C 43.9375 72.242188 43.21875 71.839844 42.40625 71.597656 C 42.773438 70.726562 42.9375 69.816406 42.90625 68.871094 C 42.871094 67.921875 42.636719 67.027344 42.207031 66.183594 C 41.867188 65.503906 41.402344 64.921875 40.8125 64.4375 C 40.226562 63.953125 39.5625 63.609375 38.832031 63.40625 C 38.433594 63.300781 38.027344 63.253906 37.617188 63.253906 C 37.984375 62.367188 38.21875 61.445312 38.316406 60.492188 C 38.527344 58.191406 37.5625 56.0625 35.863281 55.070312 C 34.4375 54.238281 32.546875 54.222656 30.804688 55.03125 C 30.015625 55.40625 29.292969 55.886719 28.640625 56.464844 C 28.207031 55.582031 27.792969 54.710938 27.40625 53.859375 C 31.289062 52.8125 34.191406 50.9375 35.660156 48.496094 C 36.84375 46.535156 37.085938 44.308594 36.378906 41.882812 C 35.429688 38.601562 33.359375 34.3125 30.984375 30.6875 C 28.957031 27.59375 25.824219 23.617188 22.402344 22.242188 C 20.644531 21.53125 18.945312 21.597656 17.492188 22.429688 C 12.9375 25.039062 9.722656 27.894531 7.664062 31.160156 C 5.796875 34.121094 4.863281 37.386719 4.71875 41.433594 C 4.484375 47.878906 7.171875 53.996094 9.710938 59.222656 C 10.421875 60.691406 11.148438 62.152344 11.898438 63.609375 C 10.734375 65.050781 9.886719 66.859375 9.359375 68.195312 C 8.652344 69.988281 8.148438 71.832031 7.851562 73.734375 C 7.742188 74.492188 7.652344 75.199219 7.566406 75.886719 C 6.960938 80.699219 6.519531 84.179688 0.246094 93.9375 C 0.164062 94.0625 0.109375 94.199219 0.0859375 94.34375 C 0.0585938 94.492188 0.0625 94.636719 0.09375 94.78125 C 0.125 94.929688 0.183594 95.0625 0.269531 95.1875 C 0.355469 95.308594 0.460938 95.410156 0.585938 95.488281 C 0.710938 95.570312 0.847656 95.625 0.996094 95.652344 C 1.140625 95.675781 1.289062 95.675781 1.433594 95.640625 C 1.582031 95.609375 1.714844 95.550781 1.839844 95.46875 C 1.960938 95.382812 2.0625 95.277344 2.144531 95.152344 C 8.691406 84.96875 9.160156 81.277344 9.804688 76.167969 C 9.890625 75.492188 9.980469 74.792969 10.085938 74.054688 C 10.445312 71.550781 11.558594 68.132812 13.0625 65.84375 C 14.253906 68.101562 15.480469 70.335938 16.746094 72.546875 C 16.746094 72.546875 17.160156 73.300781 17.835938 73.300781 C 18.511719 73.300781 18.960938 72.546875 18.960938 72.546875 C 20.972656 68.785156 25.652344 62.761719 28.847656 59.402344 C 29.851562 58.34375 30.730469 57.542969 31.75 57.070312 C 32.808594 56.582031 33.949219 56.5625 34.722656 57.015625 C 35.804688 57.644531 36.179688 59.113281 36.070312 60.289062 C 35.9375 61.757812 35.214844 63.1875 34.515625 64.570312 C 34.398438 64.796875 34.363281 65.039062 34.414062 65.289062 C 34.460938 65.539062 34.582031 65.75 34.773438 65.917969 C 34.96875 66.089844 35.191406 66.183594 35.449219 66.199219 C 35.703125 66.214844 35.9375 66.152344 36.152344 66.007812 C 36.84375 65.542969 37.554688 65.398438 38.265625 65.582031 C 39.148438 65.839844 39.792969 66.382812 40.199219 67.207031 C 40.992188 68.757812 40.699219 70.820312 39.546875 71.804688 C 39.34375 71.976562 39.21875 72.195312 39.171875 72.453125 C 39.121094 72.714844 39.160156 72.960938 39.285156 73.195312 C 39.414062 73.425781 39.597656 73.59375 39.84375 73.695312 C 40.085938 73.800781 40.335938 73.8125 40.59375 73.742188 C 41.921875 73.359375 43.40625 74.457031 43.90625 75.679688 C 44.636719 77.449219 43.984375 79.441406 43.527344 80.46875 C 43.246094 81.09375 42.925781 81.695312 42.566406 82.277344 C 42.558594 82.289062 42.550781 82.300781 42.542969 82.3125 C 42.214844 82.847656 41.867188 83.375 41.503906 83.917969 C 41.203125 84.375 40.886719 84.847656 40.589844 85.324219 C 37.394531 90.421875 23.847656 105.214844 20.8125 108.273438 C 20.707031 108.382812 20.628906 108.503906 20.570312 108.640625 C 20.515625 108.78125 20.488281 108.921875 20.488281 109.074219 C 20.488281 109.222656 20.519531 109.363281 20.574219 109.503906 C 20.632812 109.640625 20.714844 109.761719 20.824219 109.867188 C 20.929688 109.972656 21.050781 110.050781 21.191406 110.109375 C 21.328125 110.164062 21.472656 110.191406 21.621094 110.191406 C 21.769531 110.191406 21.914062 110.160156 22.054688 110.101562 C 22.191406 110.046875 22.3125 109.964844 22.417969 109.859375 C 24.152344 108.109375 28.980469 102.902344 33.554688 97.667969 C 37.191406 102.300781 41.636719 107.09375 47.257812 109.347656 C 49.789062 110.351562 52.417969 110.84375 55.144531 110.832031 C 57.425781 110.820312 59.664062 110.511719 61.863281 109.910156 C 65.988281 108.792969 69.882812 106.667969 72.019531 104.367188 C 75.214844 100.929688 69.734375 91.226562 68.605469 89.316406 Z M 17.859375 69.941406 C 15.707031 66.109375 13.652344 62.183594 11.742188 58.246094 C 9.320312 53.257812 6.757812 47.441406 6.972656 41.511719 C 7.101562 37.878906 7.929688 34.96875 9.574219 32.359375 C 11.433594 29.410156 14.390625 26.800781 18.617188 24.378906 C 19.46875 23.890625 20.433594 23.871094 21.558594 24.328125 C 26.582031 26.351562 32.5 36.609375 34.210938 42.507812 C 34.734375 44.308594 34.574219 45.933594 33.726562 47.335938 C 32.417969 49.507812 29.53125 51.15625 25.59375 51.980469 C 25.425781 52.015625 25.277344 52.082031 25.140625 52.1875 C 25.003906 52.289062 24.898438 52.414062 24.820312 52.566406 C 24.742188 52.71875 24.703125 52.875 24.695312 53.046875 C 24.691406 53.214844 24.722656 53.378906 24.789062 53.53125 C 25.4375 55.003906 26.160156 56.546875 26.949219 58.132812 C 24.082031 61.195312 20.195312 66.121094 17.859375 69.941406 Z M 70.367188 102.839844 C 68.527344 104.816406 64.957031 106.742188 61.273438 107.738281 C 58.011719 108.621094 53.078125 109.257812 48.097656 107.261719 C 45.246094 106.117188 41.207031 103.789062 35.058594 95.933594 C 38.289062 92.183594 41.1875 88.617188 42.503906 86.519531 C 42.785156 86.066406 43.09375 85.605469 43.386719 85.160156 C 43.449219 85.066406 43.515625 84.96875 43.578125 84.875 C 44.515625 86.144531 45.460938 87.390625 46.398438 88.59375 C 46.507812 88.734375 46.640625 88.839844 46.800781 88.917969 C 46.960938 88.992188 47.128906 89.03125 47.304688 89.027344 C 47.480469 89.027344 47.648438 88.984375 47.804688 88.902344 C 47.964844 88.824219 48.09375 88.710938 48.199219 88.570312 C 50.648438 85.238281 54.320312 82.765625 58.269531 81.789062 C 59.636719 81.449219 63.234375 84.667969 66.660156 90.460938 C 70.316406 96.636719 71.429688 101.695312 70.367188 102.839844 Z M 90.785156 3.421875 C 84.582031 1.601562 77.835938 1.363281 71.285156 2.730469 C 65.09375 4.019531 59.460938 6.710938 55.429688 10.308594 C 48.648438 16.355469 44.703125 25.742188 45.136719 34.804688 C 45.488281 42.089844 48.074219 49.070312 52.425781 54.449219 C 57.007812 60.121094 63.328125 63.859375 70.742188 65.292969 C 71.195312 68.738281 70.8125 72.089844 69.597656 75.34375 C 69.515625 75.554688 69.503906 75.773438 69.554688 75.992188 C 69.605469 76.210938 69.710938 76.398438 69.875 76.554688 C 70.042969 76.710938 70.234375 76.808594 70.457031 76.847656 C 70.679688 76.886719 70.894531 76.859375 71.105469 76.769531 C 76.785156 74.300781 80.511719 70.859375 82.785156 65.976562 C 90.171875 64.917969 97.25 61.273438 102.785156 55.671875 C 108.625 49.765625 111.988281 42.378906 112.257812 34.871094 C 112.507812 28.011719 110.726562 21.21875 107.238281 15.734375 C 103.410156 9.710938 97.722656 5.453125 90.785156 3.421875 Z M 110.003906 34.789062 C 109.753906 41.730469 106.621094 48.585938 101.179688 54.09375 C 95.917969 59.417969 88.882812 62.96875 81.878906 63.828125 C 81.449219 63.878906 81.148438 64.105469 80.980469 64.5 C 79.25 68.5 76.589844 71.375 72.496094 73.59375 C 73.269531 70.46875 73.390625 67.316406 72.851562 64.140625 C 72.8125 63.90625 72.707031 63.703125 72.535156 63.535156 C 72.367188 63.363281 72.164062 63.261719 71.929688 63.21875 C 64.714844 62 58.578125 58.480469 54.179688 53.039062 C 50.128906 48.027344 47.71875 41.511719 47.390625 34.695312 C 46.988281 26.296875 50.644531 17.59375 56.933594 11.988281 C 60.675781 8.648438 65.9375 6.144531 71.746094 4.933594 C 74.378906 4.382812 77.039062 4.105469 79.730469 4.105469 C 83.273438 4.097656 86.75 4.589844 90.152344 5.578125 C 96.554688 7.453125 101.804688 11.382812 105.335938 16.9375 C 108.578125 22.042969 110.238281 28.382812 110.003906 34.789062 Z M 63.921875 29.925781 C 62.617188 30.417969 61.828125 31.636719 61.75 33.269531 C 61.722656 33.988281 61.878906 34.660156 62.226562 35.292969 C 62.574219 35.921875 63.058594 36.417969 63.683594 36.78125 C 64.210938 37.066406 64.773438 37.210938 65.371094 37.207031 C 65.8125 37.203125 66.238281 37.132812 66.652344 36.988281 C 67.144531 36.824219 67.582031 36.566406 67.964844 36.21875 C 68.347656 35.867188 68.640625 35.457031 68.847656 34.980469 C 69.449219 33.535156 69.183594 32.03125 68.140625 30.957031 C 67.042969 29.828125 65.308594 29.402344 63.921875 29.925781 Z M 66.761719 34.121094 C 66.671875 34.292969 66.554688 34.445312 66.40625 34.574219 C 66.257812 34.703125 66.09375 34.796875 65.910156 34.863281 C 65.722656 34.925781 65.53125 34.953125 65.335938 34.945312 C 65.140625 34.9375 64.953125 34.890625 64.777344 34.8125 C 64.527344 34.660156 64.332031 34.457031 64.191406 34.199219 C 64.054688 33.9375 63.992188 33.664062 64.003906 33.371094 C 64.039062 32.648438 64.28125 32.195312 64.722656 32.027344 C 65.261719 31.824219 66.050781 32.042969 66.519531 32.523438 C 66.941406 32.957031 67.023438 33.496094 66.761719 34.121094 Z M 79.726562 29.835938 C 77.777344 29.507812 76.113281 30.664062 75.683594 32.652344 C 75.476562 33.679688 75.664062 34.628906 76.246094 35.5 C 76.796875 36.367188 77.574219 36.910156 78.578125 37.136719 C 78.804688 37.183594 79.03125 37.207031 79.261719 37.207031 C 80.066406 37.199219 80.792969 36.960938 81.445312 36.488281 C 82.304688 35.886719 82.808594 35.070312 82.953125 34.035156 C 83.019531 33.519531 82.980469 33.011719 82.832031 32.511719 C 82.683594 32.011719 82.441406 31.5625 82.101562 31.167969 C 81.472656 30.4375 80.679688 29.992188 79.730469 29.835938 Z M 80.710938 33.761719 C 80.648438 34.144531 80.453125 34.445312 80.128906 34.660156 C 79.804688 34.90625 79.441406 34.996094 79.035156 34.933594 C 78.644531 34.835938 78.34375 34.617188 78.136719 34.273438 C 77.894531 33.925781 77.8125 33.542969 77.886719 33.128906 C 78.128906 32.019531 78.910156 31.980469 79.351562 32.054688 C 79.972656 32.15625 80.84375 32.699219 80.714844 33.761719 Z M 93.734375 29.957031 C 92.1875 29.8125 90.546875 30.773438 89.84375 32.242188 C 89.207031 33.558594 89.476562 35.011719 90.5625 36.128906 C 91.285156 36.851562 92.160156 37.207031 93.1875 37.199219 C 93.808594 37.203125 94.390625 37.054688 94.929688 36.753906 C 95.273438 36.554688 95.574219 36.300781 95.835938 36.003906 C 96.097656 35.703125 96.304688 35.371094 96.457031 35.007812 C 96.613281 34.640625 96.703125 34.261719 96.734375 33.867188 C 96.765625 33.472656 96.734375 33.082031 96.640625 32.695312 C 96.210938 31.085938 95.152344 30.089844 93.734375 29.957031 Z M 93.820312 34.796875 C 93.546875 34.9375 93.261719 34.984375 92.960938 34.941406 C 92.660156 34.898438 92.402344 34.769531 92.179688 34.5625 C 91.753906 34.121094 91.652344 33.679688 91.875 33.214844 C 92.167969 32.605469 92.921875 32.140625 93.523438 32.195312 C 93.964844 32.238281 94.28125 32.601562 94.460938 33.273438 C 94.527344 33.570312 94.5 33.859375 94.382812 34.136719 C 94.265625 34.417969 94.078125 34.636719 93.820312 34.796875 Z M 93.820312 34.796875 " fill-opacity="1" fill-rule="nonzero"/></g></svg>