<svg xmlns="http://www.w3.org/2000/svg" xmlns:xlink="http://www.w3.org/1999/xlink" width="150" zoomAndPan="magnify" viewBox="0 0 112.5 112.499997" height="150" preserveAspectRatio="xMidYMid meet" version="1.0"><defs><clipPath id="efc1440694"><path d="M 0 0 L 112.003906 0 L 112.003906 112.003906 L 0 112.003906 Z M 0 0 " clip-rule="nonzero"/></clipPath><clipPath id="46bab2729b"><path d="M 0 7 L 112.003906 7 L 112.003906 105 L 0 105 Z M 0 7 " clip-rule="nonzero"/></clipPath></defs><g clip-path="url(#efc1440694)"><path fill="#ffffff" d="M 0 0 L 112.5 0 L 112.5 120 L 0 120 Z M 0 0 " fill-opacity="1" fill-rule="nonzero"/><path fill="#ffffff" d="M 0 0 L 112.5 0 L 112.5 112.5 L 0 112.5 Z M 0 0 " fill-opacity="1" fill-rule="nonzero"/><path fill="#ffffff" d="M 0 0 L 112.5 0 L 112.5 112.5 L 0 112.5 Z M 0 0 " fill-opacity="1" fill-rule="nonzero"/></g><g clip-path="url(#46bab2729b)"><path fill="#f4b6e6" d="M 39.339844 65.257812 L 29.355469 75.207031 L 29.316406 75.25 C 28.917969 75.617188 28.464844 75.894531 27.957031 76.085938 C 27.449219 76.273438 26.925781 76.363281 26.382812 76.351562 C 25.839844 76.335938 25.320312 76.222656 24.824219 76.007812 C 24.324219 75.792969 23.886719 75.492188 23.507812 75.109375 C 23.125 74.722656 22.832031 74.28125 22.625 73.78125 C 22.414062 73.285156 22.308594 72.765625 22.304688 72.222656 C 22.296875 71.683594 22.394531 71.160156 22.59375 70.660156 C 22.792969 70.15625 23.078125 69.707031 23.449219 69.316406 L 33.429688 59.371094 C 33.625 59.179688 33.835938 59.003906 34.0625 58.851562 C 34.292969 58.703125 34.535156 58.574219 34.785156 58.46875 C 35.039062 58.363281 35.300781 58.285156 35.570312 58.230469 C 35.839844 58.179688 36.113281 58.152344 36.386719 58.152344 C 36.660156 58.152344 36.933594 58.179688 37.199219 58.230469 C 37.46875 58.285156 37.730469 58.363281 37.984375 58.46875 C 38.238281 58.574219 38.480469 58.699219 38.707031 58.851562 C 38.933594 59.003906 39.144531 59.175781 39.339844 59.371094 C 39.535156 59.5625 39.707031 59.773438 39.859375 60 C 40.011719 60.226562 40.140625 60.46875 40.246094 60.71875 C 40.351562 60.972656 40.433594 61.234375 40.484375 61.5 C 40.539062 61.769531 40.566406 62.039062 40.566406 62.3125 C 40.566406 62.585938 40.539062 62.859375 40.488281 63.125 C 40.433594 63.394531 40.355469 63.65625 40.25 63.90625 C 40.144531 64.160156 40.015625 64.398438 39.863281 64.628906 C 39.710938 64.855469 39.539062 65.066406 39.347656 65.257812 Z M 67.746094 89.910156 C 67.746094 89.5 67.683594 89.097656 67.5625 88.707031 C 67.441406 88.3125 67.269531 87.945312 67.039062 87.601562 C 66.808594 87.261719 66.535156 86.960938 66.214844 86.699219 C 65.898438 86.4375 65.546875 86.230469 65.164062 86.070312 C 64.785156 85.914062 64.390625 85.816406 63.980469 85.773438 C 63.566406 85.734375 63.160156 85.753906 62.753906 85.832031 C 62.351562 85.914062 61.964844 86.046875 61.601562 86.242188 C 61.238281 86.433594 60.910156 86.675781 60.617188 86.964844 L 50.886719 96.667969 C 50.503906 97.050781 50.207031 97.492188 49.996094 97.992188 C 49.785156 98.492188 49.675781 99.011719 49.667969 99.550781 C 49.660156 100.09375 49.753906 100.617188 49.949219 101.121094 C 50.144531 101.625 50.425781 102.074219 50.796875 102.472656 L 50.882812 102.550781 C 51.074219 102.746094 51.289062 102.917969 51.515625 103.066406 C 51.746094 103.21875 51.988281 103.347656 52.238281 103.449219 C 52.492188 103.554688 52.753906 103.632812 53.023438 103.6875 C 53.292969 103.738281 53.566406 103.765625 53.839844 103.765625 C 54.113281 103.765625 54.386719 103.738281 54.65625 103.6875 C 54.925781 103.632812 55.1875 103.554688 55.441406 103.449219 C 55.691406 103.347656 55.933594 103.21875 56.164062 103.066406 C 56.390625 102.917969 56.605469 102.746094 56.796875 102.550781 L 66.53125 92.855469 C 67.34375 92.042969 67.75 91.0625 67.746094 89.910156 Z M 58.601562 80.792969 C 58.609375 79.652344 58.210938 78.679688 57.402344 77.867188 L 57.347656 77.8125 C 56.953125 77.429688 56.5 77.140625 55.992188 76.9375 C 55.480469 76.734375 54.953125 76.632812 54.402344 76.636719 C 53.855469 76.640625 53.328125 76.746094 52.820312 76.953125 C 52.3125 77.164062 51.863281 77.460938 51.472656 77.84375 L 41.742188 87.542969 C 41.550781 87.734375 41.378906 87.945312 41.226562 88.171875 C 41.074219 88.398438 40.949219 88.636719 40.84375 88.890625 C 40.738281 89.140625 40.660156 89.398438 40.609375 89.667969 C 40.554688 89.933594 40.527344 90.203125 40.527344 90.476562 C 40.523438 90.746094 40.550781 91.015625 40.601562 91.285156 C 40.65625 91.550781 40.730469 91.808594 40.835938 92.0625 C 40.9375 92.316406 41.0625 92.554688 41.210938 92.78125 C 41.363281 93.011719 41.53125 93.222656 41.722656 93.414062 L 41.605469 93.570312 L 41.742188 93.433594 C 41.9375 93.625 42.148438 93.796875 42.375 93.949219 C 42.605469 94.101562 42.847656 94.226562 43.097656 94.332031 C 43.351562 94.4375 43.613281 94.515625 43.882812 94.566406 C 44.152344 94.621094 44.425781 94.648438 44.699219 94.648438 C 44.972656 94.648438 45.242188 94.621094 45.511719 94.566406 C 45.78125 94.515625 46.042969 94.4375 46.296875 94.332031 C 46.550781 94.226562 46.792969 94.101562 47.019531 93.949219 C 47.25 93.796875 47.460938 93.625 47.65625 93.433594 L 57.386719 83.734375 C 58.199219 82.925781 58.605469 81.945312 58.601562 80.796875 Z M 49.667969 71.59375 L 49.667969 71.449219 C 49.675781 70.347656 49.296875 69.390625 48.539062 68.585938 L 48.460938 68.511719 C 47.679688 67.730469 46.734375 67.320312 45.628906 67.289062 L 45.496094 67.289062 C 44.390625 67.285156 43.433594 67.660156 42.625 68.410156 L 42.542969 68.496094 L 32.597656 78.425781 C 32.40625 78.617188 32.234375 78.828125 32.085938 79.054688 C 31.933594 79.28125 31.804688 79.523438 31.703125 79.773438 C 31.597656 80.023438 31.519531 80.285156 31.464844 80.550781 C 31.410156 80.816406 31.382812 81.085938 31.382812 81.359375 C 31.382812 81.632812 31.410156 81.902344 31.460938 82.167969 C 31.511719 82.433594 31.589844 82.695312 31.691406 82.945312 C 31.792969 83.199219 31.921875 83.4375 32.070312 83.667969 C 32.21875 83.894531 32.390625 84.105469 32.582031 84.300781 L 32.636719 84.351562 C 33.40625 85.109375 34.332031 85.503906 35.410156 85.539062 L 35.554688 85.53125 C 36.710938 85.535156 37.695312 85.132812 38.511719 84.320312 L 48.453125 74.390625 C 49.230469 73.621094 49.636719 72.6875 49.671875 71.59375 Z M 90.050781 17.207031 C 88.984375 17.953125 87.824219 18.484375 86.566406 18.804688 C 85.265625 19.121094 83.949219 19.3125 82.613281 19.382812 C 81.234375 19.457031 79.855469 19.457031 78.476562 19.394531 C 76.515625 19.308594 74.46875 19.105469 72.300781 18.890625 L 72.164062 18.878906 C 64.710938 18.136719 56.265625 17.304688 51.300781 21.628906 L 41.363281 31.523438 C 40.988281 31.914062 40.699219 32.359375 40.496094 32.863281 C 40.292969 33.363281 40.191406 33.882812 40.195312 34.425781 C 40.195312 34.964844 40.296875 35.488281 40.5 35.988281 C 40.707031 36.488281 40.996094 36.933594 41.375 37.324219 C 41.753906 37.710938 42.1875 38.015625 42.683594 38.234375 C 43.179688 38.453125 43.699219 38.570312 44.242188 38.585938 C 44.785156 38.605469 45.3125 38.519531 45.820312 38.335938 C 46.332031 38.148438 46.785156 37.875 47.1875 37.511719 L 57.253906 27.472656 C 57.46875 27.261719 57.714844 27.09375 57.996094 26.980469 C 58.273438 26.863281 58.566406 26.804688 58.871094 26.804688 C 59.171875 26.804688 59.464844 26.863281 59.746094 26.980469 C 60.027344 27.09375 60.273438 27.261719 60.488281 27.472656 L 60.515625 27.503906 L 97.902344 64.753906 C 100.09375 61.105469 102.433594 57.195312 104.941406 52.996094 C 107.875 48.074219 110.429688 43.777344 112.5625 40.164062 L 91.195312 16.289062 C 90.832031 16.617188 90.449219 16.925781 90.050781 17.207031 Z M 58.878906 32.300781 L 50.375 40.765625 C 49.964844 41.15625 49.523438 41.503906 49.046875 41.808594 C 48.566406 42.113281 48.066406 42.367188 47.539062 42.574219 C 47.011719 42.78125 46.46875 42.9375 45.914062 43.039062 C 45.355469 43.140625 44.792969 43.191406 44.226562 43.183594 C 43.660156 43.179688 43.101562 43.117188 42.546875 43.003906 C 41.992188 42.890625 41.453125 42.722656 40.929688 42.503906 C 40.410156 42.289062 39.910156 42.019531 39.441406 41.707031 C 38.96875 41.390625 38.535156 41.035156 38.132812 40.636719 L 38.09375 40.59375 C 37.691406 40.1875 37.332031 39.746094 37.019531 39.273438 C 36.703125 38.796875 36.4375 38.292969 36.222656 37.765625 C 36.003906 37.238281 35.84375 36.695312 35.734375 36.136719 C 35.625 35.578125 35.570312 35.011719 35.574219 34.441406 C 35.574219 33.871094 35.632812 33.308594 35.746094 32.75 C 35.855469 32.191406 36.023438 31.648438 36.242188 31.121094 C 36.460938 30.59375 36.730469 30.09375 37.046875 29.621094 C 37.367188 29.148438 37.726562 28.707031 38.128906 28.304688 L 47.136719 19.332031 L 47.109375 19.332031 C 46.75 19.351562 46.390625 19.371094 46.050781 19.386719 C 44.550781 19.453125 43.523438 19.488281 42.601562 19.472656 C 41.644531 19.476562 40.6875 19.421875 39.734375 19.304688 C 37.714844 19.113281 35.933594 18.363281 34.386719 17.058594 C 32.746094 15.542969 31.332031 13.839844 30.140625 11.949219 L 27.902344 8.699219 L 27.148438 7.585938 L 0 26.445312 C 3.445312 32.328125 7.09375 38.527344 10.882812 44.917969 C 14.375 50.800781 18.105469 57.050781 22.289062 64.019531 L 30.199219 56.144531 C 30.605469 55.738281 31.046875 55.378906 31.527344 55.0625 C 32.003906 54.742188 32.511719 54.476562 33.039062 54.257812 C 33.570312 54.039062 34.121094 53.871094 34.683594 53.761719 C 35.246094 53.648438 35.816406 53.59375 36.390625 53.59375 C 36.964844 53.59375 37.535156 53.648438 38.097656 53.761719 C 38.664062 53.871094 39.210938 54.039062 39.742188 54.257812 C 40.273438 54.476562 40.777344 54.742188 41.253906 55.0625 C 41.734375 55.378906 42.175781 55.738281 42.582031 56.144531 C 43.203125 56.765625 43.722656 57.464844 44.140625 58.238281 C 44.800781 59.46875 45.167969 60.78125 45.246094 62.175781 C 46.550781 62.167969 47.804688 62.421875 49.007812 62.929688 C 50.210938 63.4375 51.265625 64.160156 52.171875 65.101562 C 52.925781 65.925781 53.511719 66.855469 53.929688 67.890625 C 54.347656 68.925781 54.574219 70.003906 54.605469 71.117188 C 56.980469 71.570312 58.992188 72.675781 60.644531 74.429688 C 61.363281 75.234375 61.941406 76.125 62.378906 77.109375 C 62.851562 78.292969 63.121094 79.523438 63.195312 80.796875 C 63.191406 80.9375 63.179688 81.078125 63.160156 81.21875 L 63.160156 81.234375 L 63.179688 81.234375 C 63.316406 81.214844 63.457031 81.203125 63.597656 81.199219 C 64.757812 81.195312 65.875 81.414062 66.949219 81.855469 C 68.023438 82.296875 68.96875 82.925781 69.789062 83.746094 L 69.832031 83.796875 C 70.453125 84.417969 70.964844 85.117188 71.367188 85.890625 C 71.773438 86.667969 72.054688 87.488281 72.207031 88.347656 C 72.363281 89.210938 72.386719 90.074219 72.277344 90.941406 C 72.167969 91.8125 71.933594 92.644531 71.570312 93.441406 C 71.835938 93.546875 72.070312 93.699219 72.273438 93.898438 C 72.46875 94.085938 72.679688 94.253906 72.90625 94.402344 C 73.136719 94.550781 73.375 94.675781 73.628906 94.777344 C 73.882812 94.878906 74.140625 94.953125 74.410156 95.003906 C 74.675781 95.054688 74.945312 95.078125 75.21875 95.078125 C 75.492188 95.074219 75.757812 95.046875 76.027344 94.992188 C 76.292969 94.9375 76.550781 94.859375 76.800781 94.753906 C 77.054688 94.648438 77.292969 94.519531 77.519531 94.371094 C 77.742188 94.21875 77.953125 94.046875 78.144531 93.855469 C 78.339844 93.664062 78.511719 93.453125 78.660156 93.230469 C 78.8125 93.003906 78.941406 92.765625 79.046875 92.515625 C 79.152344 92.265625 79.230469 92.007812 79.285156 91.742188 C 79.339844 91.476562 79.367188 91.207031 79.371094 90.9375 C 79.371094 90.664062 79.347656 90.398438 79.296875 90.128906 C 79.246094 89.863281 79.167969 89.605469 79.066406 89.351562 C 78.964844 89.101562 78.839844 88.863281 78.691406 88.636719 C 78.542969 88.40625 78.375 88.195312 78.1875 88.003906 L 60.878906 70.765625 C 60.664062 70.550781 60.5 70.304688 60.382812 70.023438 C 60.265625 69.746094 60.207031 69.453125 60.207031 69.152344 C 60.207031 68.847656 60.265625 68.558594 60.382812 68.277344 C 60.496094 67.996094 60.664062 67.75 60.878906 67.535156 C 61.09375 67.324219 61.339844 67.15625 61.621094 67.042969 C 61.902344 66.925781 62.191406 66.867188 62.496094 66.867188 C 62.800781 66.867188 63.09375 66.925781 63.375 67.042969 C 63.652344 67.160156 63.902344 67.324219 64.117188 67.539062 L 81.414062 84.773438 C 81.609375 84.96875 81.820312 85.140625 82.046875 85.289062 C 82.277344 85.441406 82.519531 85.566406 82.769531 85.671875 C 83.023438 85.777344 83.285156 85.855469 83.554688 85.90625 C 83.824219 85.960938 84.09375 85.988281 84.367188 85.988281 C 84.644531 85.988281 84.914062 85.960938 85.183594 85.90625 C 85.453125 85.855469 85.714844 85.777344 85.964844 85.671875 C 86.21875 85.566406 86.460938 85.441406 86.6875 85.289062 C 86.917969 85.140625 87.128906 84.96875 87.324219 84.773438 L 87.386719 84.71875 C 87.761719 84.324219 88.050781 83.871094 88.25 83.363281 C 88.449219 82.859375 88.542969 82.332031 88.539062 81.789062 C 88.53125 81.242188 88.425781 80.71875 88.214844 80.21875 C 88.003906 79.714844 87.707031 79.269531 87.324219 78.882812 L 70.027344 61.65625 C 69.8125 61.441406 69.648438 61.195312 69.53125 60.914062 C 69.414062 60.636719 69.355469 60.34375 69.355469 60.042969 C 69.355469 59.738281 69.414062 59.449219 69.527344 59.167969 C 69.644531 58.886719 69.808594 58.640625 70.023438 58.425781 C 70.238281 58.214844 70.484375 58.046875 70.765625 57.933594 C 71.046875 57.816406 71.339844 57.757812 71.640625 57.757812 C 71.945312 57.753906 72.238281 57.8125 72.519531 57.929688 C 72.800781 58.042969 73.046875 58.207031 73.261719 58.421875 L 90.558594 75.65625 C 91.375 76.472656 92.359375 76.875 93.515625 76.871094 L 93.707031 76.871094 C 94.113281 76.847656 94.503906 76.769531 94.886719 76.636719 C 95.265625 76.503906 95.621094 76.316406 95.949219 76.082031 C 96.277344 75.84375 96.566406 75.566406 96.8125 75.25 C 97.058594 74.929688 97.253906 74.582031 97.402344 74.207031 C 97.546875 73.828125 97.636719 73.441406 97.667969 73.039062 C 97.703125 72.636719 97.675781 72.238281 97.59375 71.84375 C 97.511719 71.449219 97.375 71.074219 97.183594 70.71875 C 96.988281 70.367188 96.75 70.046875 96.464844 69.757812 Z M 69.019531 97.121094 C 68.96875 97.070312 68.925781 97.015625 68.890625 96.957031 L 62.941406 102.886719 C 63.003906 102.921875 63.058594 102.960938 63.105469 103.011719 C 63.492188 103.390625 63.9375 103.6875 64.4375 103.898438 C 64.9375 104.105469 65.457031 104.214844 66 104.222656 C 66.542969 104.230469 67.070312 104.140625 67.574219 103.945312 C 68.082031 103.75 68.535156 103.46875 68.929688 103.101562 L 69.015625 103.015625 C 69.835938 102.203125 70.246094 101.21875 70.242188 100.066406 L 70.242188 99.875 C 70.199219 98.84375 69.820312 97.953125 69.109375 97.203125 Z M 69.019531 97.121094 " fill-opacity="1" fill-rule="nonzero"/></g></svg>