<svg xmlns="http://www.w3.org/2000/svg" xmlns:xlink="http://www.w3.org/1999/xlink" width="150" zoomAndPan="magnify" viewBox="0 0 112.5 112.499997" height="150" preserveAspectRatio="xMidYMid meet" version="1.0"><defs><clipPath id="add6c95970"><path d="M 0 0 L 112.003906 0 L 112.003906 112.003906 L 0 112.003906 Z M 0 0 " clip-rule="nonzero"/></clipPath><clipPath id="7b19d5ab29"><path d="M 0 0 L 112.003906 0 L 112.003906 112.003906 L 0 112.003906 Z M 0 0 " clip-rule="nonzero"/></clipPath><clipPath id="6985a4ae38"><path d="M 7 96 L 10 96 L 10 112.003906 L 7 112.003906 Z M 7 96 " clip-rule="nonzero"/></clipPath><clipPath id="6323145ef7"><path d="M 41 96 L 45 96 L 45 112.003906 L 41 112.003906 Z M 41 96 " clip-rule="nonzero"/></clipPath></defs><g clip-path="url(#add6c95970)"><path fill="#ffffff" d="M 0 0 L 112.5 0 L 112.5 120 L 0 120 Z M 0 0 " fill-opacity="1" fill-rule="nonzero"/><path fill="#ffffff" d="M 0 0 L 112.5 0 L 112.5 112.5 L 0 112.5 Z M 0 0 " fill-opacity="1" fill-rule="nonzero"/><path fill="#ffffff" d="M 0 0 L 112.5 0 L 112.5 112.5 L 0 112.5 Z M 0 0 " fill-opacity="1" fill-rule="nonzero"/></g><path fill="#f4b6e6" d="M 83.742188 54.992188 C 83.742188 55.167969 83.710938 55.339844 83.640625 55.503906 C 83.574219 55.667969 83.476562 55.8125 83.351562 55.9375 C 83.226562 56.0625 83.082031 56.160156 82.917969 56.226562 C 82.753906 56.296875 82.582031 56.332031 82.40625 56.332031 C 82.226562 56.332031 82.058594 56.296875 81.894531 56.226562 C 81.730469 56.160156 81.585938 56.0625 81.457031 55.9375 C 81.332031 55.8125 81.238281 55.667969 81.167969 55.503906 C 81.101562 55.339844 81.066406 55.167969 81.066406 54.992188 C 81.066406 54.816406 81.101562 54.644531 81.167969 54.480469 C 81.238281 54.316406 81.332031 54.171875 81.457031 54.046875 C 81.585938 53.921875 81.730469 53.824219 81.894531 53.753906 C 82.058594 53.6875 82.226562 53.652344 82.40625 53.652344 C 82.582031 53.652344 82.753906 53.6875 82.917969 53.753906 C 83.082031 53.824219 83.226562 53.921875 83.351562 54.046875 C 83.476562 54.171875 83.574219 54.316406 83.640625 54.480469 C 83.710938 54.644531 83.742188 54.816406 83.742188 54.992188 Z M 83.742188 54.992188 " fill-opacity="1" fill-rule="nonzero"/><g clip-path="url(#7b19d5ab29)"><path fill="#f4b6e6" d="M 108.644531 47.824219 C 105.96875 43.671875 95.234375 42.1875 92.273438 41.851562 C 92.175781 41.570312 92.050781 41.300781 91.890625 41.050781 C 90.871094 39.441406 89.589844 38.320312 88.078125 37.714844 L 88.078125 33.628906 C 88.683594 32.875 89.167969 32.050781 89.535156 31.164062 C 91.28125 31.011719 93.996094 30.058594 94.871094 27.132812 C 95.363281 25.484375 95.070312 23.800781 94.027344 22.230469 C 96.355469 18.652344 96.515625 13.496094 95 9.441406 C 93.179688 4.578125 88.015625 1.171875 84.089844 2.101562 C 83.246094 1.394531 81.164062 0 77.839844 0 C 72.992188 0 67.410156 4.203125 65.648438 9.179688 C 64.351562 12.847656 64.316406 18.488281 66.304688 22.148438 C 65.21875 23.742188 64.898438 25.453125 65.402344 27.128906 C 66.277344 30.054688 68.988281 31.011719 70.738281 31.164062 C 71.089844 32.023438 71.542969 32.820312 72.109375 33.53125 C 72.136719 33.566406 72.167969 33.601562 72.195312 33.636719 L 72.195312 37.714844 C 70.683594 38.320312 69.40625 39.4375 68.382812 41.046875 C 68.222656 41.300781 68.097656 41.570312 68.003906 41.851562 C 65.039062 42.1875 54.308594 43.671875 51.632812 47.824219 C 49.046875 51.835938 47.042969 75.117188 46.539062 81.445312 C 44.523438 80.507812 42.820312 79.886719 42.023438 79.613281 L 41.550781 77.757812 C 41.25 76.585938 40.464844 75.613281 39.394531 75.082031 C 39.363281 75.066406 39.324219 75.050781 39.289062 75.03125 L 39.289062 71.34375 C 40.652344 70.644531 44.226562 68.5 46.242188 64.40625 C 48.472656 59.878906 48.289062 47.714844 48.230469 45.316406 C 50.207031 43.425781 51.605469 40.945312 52.308594 38.011719 C 52.375 37.738281 52.308594 37.453125 52.132812 37.238281 C 51.957031 37.019531 51.667969 36.886719 51.410156 36.910156 L 50.300781 36.949219 C 51.886719 34.71875 52.488281 31.613281 51.765625 28.726562 C 51.703125 28.476562 51.535156 28.265625 51.308594 28.148438 C 51.082031 28.03125 50.8125 28.015625 50.578125 28.109375 C 46.964844 29.5 43.617188 30.027344 40.035156 29.738281 C 41.386719 28.652344 42.285156 27.164062 42.714844 25.289062 C 42.777344 25.019531 42.710938 24.738281 42.535156 24.523438 C 42.359375 24.3125 42.105469 24.207031 41.816406 24.199219 C 41.023438 24.222656 22.285156 24.917969 15.859375 34.925781 C 13.238281 39.015625 12.859375 44.328125 13.867188 49.734375 C 13.023438 50.679688 10.859375 53.601562 12.242188 57.484375 C 13.410156 60.761719 16.113281 61.59375 17.910156 61.59375 C 17.980469 61.59375 18.046875 61.589844 18.113281 61.585938 C 18.867188 63.007812 19.683594 64.359375 20.542969 65.625 L 20.542969 73.890625 C 19.476562 74.28125 18.90625 74.621094 18.847656 74.65625 C 18.582031 74.820312 18.417969 75.109375 18.417969 75.417969 L 18.417969 79.640625 C 15.921875 80.425781 7.09375 83.511719 3.785156 88.839844 C 0.0429688 94.859375 0 110.925781 0 111.609375 C 0 112.101562 0.398438 112.5 0.894531 112.5 C 1.386719 112.5 1.785156 112.101562 1.785156 111.609375 C 1.785156 111.445312 1.824219 95.375 5.300781 89.78125 C 8.539062 84.570312 18.304688 81.535156 19.4375 81.199219 L 41.132812 81.199219 C 42.335938 81.601562 51.671875 84.863281 55.082031 89.816406 C 58.746094 95.136719 59.765625 111.496094 59.773438 111.660156 C 59.800781 112.136719 60.195312 112.5 60.664062 112.5 C 60.683594 112.5 60.699219 112.5 60.71875 112.5 C 61.210938 112.46875 61.585938 112.046875 61.558594 111.554688 C 61.523438 111.015625 60.902344 101.035156 58.773438 93.921875 L 61.714844 89.714844 L 61.714844 95.359375 C 61.714844 96.816406 62.449219 98.105469 63.558594 98.886719 C 62.871094 99.542969 62.433594 100.460938 62.433594 101.488281 L 62.433594 111.605469 C 62.433594 112.101562 62.832031 112.5 63.328125 112.5 C 63.820312 112.5 64.21875 112.101562 64.21875 111.605469 L 64.21875 101.488281 C 64.21875 100.488281 65.035156 99.675781 66.035156 99.675781 L 67.699219 99.675781 L 68.046875 101.847656 C 68.117188 102.28125 68.488281 102.601562 68.925781 102.601562 L 70.125 102.601562 L 65.882812 111.214844 C 65.664062 111.65625 65.847656 112.191406 66.289062 112.410156 C 66.417969 112.46875 66.550781 112.5 66.683594 112.5 C 67.011719 112.5 67.328125 112.316406 67.484375 112 L 73.921875 98.925781 C 74.75 97.242188 74.789062 95.292969 74.019531 93.574219 C 73.664062 92.777344 73.542969 91.898438 73.679688 91.035156 L 74.71875 84.394531 C 74.789062 83.949219 75.054688 83.578125 75.453125 83.371094 C 75.855469 83.164062 76.316406 83.15625 76.71875 83.351562 C 77.140625 83.558594 77.429688 83.957031 77.492188 84.417969 L 77.933594 87.601562 C 78.0625 88.542969 78.71875 89.285156 79.640625 89.53125 C 80.566406 89.773438 81.496094 89.457031 82.082031 88.703125 L 89.472656 79.160156 C 89.722656 78.832031 90.183594 78.738281 90.542969 78.941406 L 90.777344 79.074219 C 90.972656 79.179688 91.113281 79.359375 91.175781 79.574219 C 91.234375 79.789062 91.207031 80.015625 91.097656 80.210938 L 86.453125 88.492188 C 86.210938 88.921875 86.367188 89.464844 86.796875 89.707031 C 87.226562 89.949219 87.769531 89.796875 88.011719 89.363281 L 92.65625 81.085938 C 92.65625 81.082031 92.65625 81.082031 92.65625 81.082031 C 92.660156 81.078125 92.660156 81.078125 92.660156 81.074219 L 93.613281 79.375 C 93.839844 78.976562 94.351562 78.832031 94.78125 79.070312 C 94.976562 79.179688 95.117188 79.359375 95.179688 79.574219 C 95.238281 79.789062 95.210938 80.011719 95.101562 80.207031 L 89.742188 89.765625 C 89.5 90.195312 89.65625 90.738281 90.085938 90.980469 C 90.222656 91.058594 90.375 91.09375 90.519531 91.09375 C 90.832031 91.09375 91.136719 90.929688 91.300781 90.636719 L 95.417969 83.292969 C 95.417969 83.292969 95.421875 83.292969 95.421875 83.292969 C 95.648438 82.886719 96.160156 82.746094 96.589844 82.984375 C 96.785156 83.09375 96.925781 83.273438 96.984375 83.488281 C 97.046875 83.703125 97.019531 83.925781 96.910156 84.121094 L 95.804688 86.09375 L 92.746094 91.550781 C 92.503906 91.980469 92.65625 92.523438 93.085938 92.765625 C 93.226562 92.84375 93.375 92.878906 93.523438 92.878906 C 93.835938 92.878906 94.136719 92.714844 94.300781 92.421875 L 97.363281 86.96875 C 97.589844 86.566406 98.101562 86.421875 98.503906 86.644531 C 98.699219 86.757812 98.839844 86.9375 98.902344 87.15625 C 98.960938 87.375 98.929688 87.601562 98.816406 87.796875 L 94.382812 95.382812 L 93.792969 96.390625 C 92.957031 97.824219 91.636719 98.9375 90.082031 99.523438 C 89.125 99.886719 88.242188 100.410156 87.460938 101.0625 C 87.457031 101.070312 87.449219 101.074219 87.441406 101.082031 C 86.71875 101.691406 86.089844 102.40625 85.589844 103.210938 L 80.660156 111.136719 C 80.398438 111.554688 80.527344 112.105469 80.945312 112.363281 C 81.09375 112.457031 81.253906 112.5 81.417969 112.5 C 81.714844 112.5 82.003906 112.351562 82.175781 112.078125 L 87.105469 104.15625 C 87.46875 103.570312 87.929688 103.054688 88.441406 102.597656 L 94.203125 102.597656 C 94.640625 102.597656 95.011719 102.28125 95.082031 101.847656 L 95.386719 99.964844 L 98.304688 99.964844 C 99.058594 99.964844 99.667969 100.578125 99.667969 101.328125 L 99.667969 111.605469 C 99.667969 112.101562 100.066406 112.5 100.5625 112.5 C 101.054688 112.5 101.453125 112.101562 101.453125 111.605469 L 101.453125 101.332031 C 101.453125 100.445312 101.082031 99.648438 100.492188 99.074219 C 101.082031 98.503906 101.453125 97.703125 101.453125 96.820312 L 101.453125 96.550781 C 101.738281 96.574219 102.023438 96.589844 102.316406 96.589844 C 103.984375 96.589844 105.8125 96.199219 107.601562 95.070312 C 112.359375 92.054688 112.492188 79.070312 112.492188 77.566406 C 112.402344 74.984375 111.480469 52.226562 108.644531 47.824219 Z M 17.363281 35.890625 C 22.367188 28.09375 36.316406 26.402344 40.605469 26.0625 C 39.9375 27.671875 38.730469 28.777344 36.9375 29.429688 C 36.558594 29.566406 36.320312 29.941406 36.351562 30.34375 C 36.386719 30.746094 36.6875 31.074219 37.082031 31.148438 C 41.707031 31.988281 45.800781 31.679688 50.207031 30.144531 C 50.492188 32.585938 49.75 35.554688 47.609375 37.207031 C 47.300781 37.445312 47.183594 37.855469 47.316406 38.21875 C 47.445312 38.582031 47.800781 38.84375 48.1875 38.808594 L 50.25 38.738281 C 49.332031 41.570312 47.640625 43.847656 45.316406 45.367188 C 44.195312 46.105469 43.394531 47.171875 43.070312 48.375 L 42.667969 49.839844 C 42.066406 49.277344 41.300781 48.941406 40.46875 48.910156 C 39.554688 48.871094 38.601562 49.234375 37.925781 49.894531 C 37.257812 50.554688 36.882812 51.476562 36.90625 52.417969 L 37.058594 58.871094 C 37.054688 62.523438 34.546875 65.550781 32.589844 67.363281 C 32.191406 66.457031 31.914062 65.503906 31.761719 64.507812 C 31.707031 64.136719 31.421875 63.839844 31.050781 63.765625 C 30.6875 63.6875 30.308594 63.859375 30.113281 64.179688 C 28.933594 66.132812 27.324219 67.605469 25.199219 68.664062 C 23.089844 66.402344 21.054688 63.460938 19.371094 60.207031 C 19.359375 60.1875 19.355469 60.167969 19.34375 60.152344 C 15.230469 52.183594 13.226562 42.335938 17.363281 35.890625 Z M 38.691406 52.375 C 38.679688 51.917969 38.855469 51.488281 39.179688 51.167969 C 39.511719 50.84375 39.945312 50.683594 40.402344 50.695312 C 40.847656 50.710938 41.261719 50.902344 41.5625 51.234375 C 41.859375 51.5625 42.011719 51.992188 41.984375 52.4375 L 41.59375 58.894531 C 41.550781 59.59375 40.992188 60.148438 40.292969 60.183594 C 39.921875 60.210938 39.558594 60.074219 39.28125 59.816406 C 39.007812 59.5625 38.851562 59.21875 38.84375 58.84375 Z M 13.925781 56.886719 C 13.203125 54.859375 13.757812 53.164062 14.382812 52.066406 C 15.054688 54.6875 16.023438 57.289062 17.191406 59.75 C 16.128906 59.582031 14.664062 58.960938 13.925781 56.886719 Z M 22.324219 68.054688 C 22.992188 68.890625 23.675781 69.667969 24.363281 70.371094 C 24.53125 70.542969 24.765625 70.636719 25 70.636719 C 25.125 70.636719 25.246094 70.613281 25.363281 70.5625 C 27.410156 69.648438 29.117188 68.375 30.457031 66.769531 C 30.730469 67.625 31.085938 68.449219 31.527344 69.234375 C 31.660156 69.464844 31.882812 69.625 32.144531 69.671875 C 32.40625 69.71875 32.671875 69.652344 32.875 69.484375 C 34.695312 67.976562 37.523438 65.144531 38.496094 61.457031 C 39.007812 61.792969 39.597656 61.972656 40.214844 61.972656 C 40.269531 61.972656 40.328125 61.972656 40.382812 61.96875 C 41.992188 61.886719 43.28125 60.609375 43.375 59.003906 L 43.761719 52.636719 L 44.792969 48.84375 C 45.003906 48.0625 45.539062 47.359375 46.292969 46.863281 C 46.355469 46.824219 46.40625 46.777344 46.464844 46.738281 C 46.5 50.664062 46.390625 60.058594 44.636719 63.617188 C 43.1875 66.5625 40.757812 68.390625 39.289062 69.289062 L 39.289062 67.160156 C 39.289062 66.667969 38.890625 66.269531 38.394531 66.269531 C 37.902344 66.269531 37.503906 66.667969 37.503906 67.160156 L 37.503906 74.269531 C 35.621094 73.558594 32.925781 72.8125 29.59375 72.671875 C 26.523438 72.539062 24.09375 72.894531 22.328125 73.34375 L 22.328125 68.054688 Z M 20.203125 79.410156 L 20.203125 75.964844 C 21.296875 75.453125 24.457031 74.238281 29.515625 74.457031 C 33.878906 74.644531 37.082031 75.933594 38.605469 76.683594 C 39.207031 76.980469 39.648438 77.535156 39.816406 78.199219 L 40.128906 79.410156 Z M 90.382812 42.003906 C 90.710938 42.527344 90.78125 43.179688 90.558594 43.75 L 89.265625 47.109375 C 89.171875 47.34375 88.957031 47.398438 88.894531 47.40625 C 88.804688 47.425781 88.632812 47.425781 88.5 47.269531 C 88.484375 47.253906 88.46875 47.242188 88.457031 47.226562 C 88.457031 47.222656 88.453125 47.222656 88.453125 47.222656 C 87.46875 46.074219 86.363281 45.15625 85.164062 44.46875 C 86.429688 42.636719 87.453125 40.992188 87.867188 39.578125 C 88.835938 40.074219 89.664062 40.875 90.382812 42.003906 Z M 80.136719 59.195312 C 79.988281 59.195312 79.847656 59.183594 79.703125 59.171875 L 79.703125 54.042969 C 79.703125 52.167969 81.957031 48.996094 83.945312 46.199219 C 84.007812 46.113281 84.066406 46.027344 84.128906 45.9375 C 85.136719 46.496094 86.070312 47.246094 86.914062 48.1875 C 86.824219 50.082031 86.082031 59.195312 80.136719 59.195312 Z M 90.003906 67.445312 L 74.460938 67.445312 C 73.953125 66.609375 73.332031 65.964844 72.585938 65.542969 C 72.746094 65.042969 72.769531 64.4375 72.464844 63.792969 C 72.199219 63.230469 71.527344 62.695312 70.65625 62.242188 L 70.515625 61.660156 C 70.785156 61.246094 71.234375 60.980469 71.738281 60.980469 L 88.535156 60.980469 C 89.34375 60.980469 90.003906 61.640625 90.003906 62.449219 Z M 63.742188 75.011719 C 62.941406 75.015625 61.757812 74.90625 60.820312 74.328125 C 59.886719 73.753906 59.453125 72.601562 59.253906 71.734375 C 59.222656 71.601562 59.167969 71.480469 59.109375 71.359375 C 60.28125 69.105469 61.683594 66.757812 62.886719 65.105469 C 62.886719 65.101562 62.890625 65.097656 62.894531 65.09375 C 63.785156 63.871094 64.5625 63.03125 65.039062 62.914062 C 67.082031 62.421875 70.53125 63.910156 70.851562 64.554688 C 71.035156 64.949219 70.742188 65.285156 70.691406 65.339844 C 70.460938 65.5625 70.371094 65.890625 70.449219 66.199219 C 70.527344 66.511719 70.765625 66.753906 71.074219 66.839844 C 71.488281 66.953125 71.855469 67.160156 72.183594 67.449219 L 63.574219 67.449219 C 63.3125 67.449219 63.066406 67.5625 62.894531 67.761719 C 62.726562 67.960938 62.652344 68.222656 62.695312 68.480469 Z M 65.871094 54.96875 C 65.84375 54.855469 65.882812 54.765625 65.910156 54.722656 C 65.9375 54.679688 65.996094 54.601562 66.113281 54.574219 L 66.59375 54.457031 C 66.707031 54.429688 66.796875 54.472656 66.839844 54.496094 C 66.882812 54.523438 66.960938 54.585938 66.988281 54.699219 L 68.628906 61.453125 C 68.214844 61.339844 67.796875 61.242188 67.378906 61.175781 Z M 78.082031 19.289062 C 78.285156 19.597656 78.664062 19.746094 79.027344 19.664062 C 81.789062 19.027344 84.199219 17.671875 86.230469 15.617188 C 85.8125 16.765625 85.21875 17.691406 84.445312 18.417969 C 84.199219 18.648438 84.101562 19 84.199219 19.324219 C 84.296875 19.652344 84.570312 19.894531 84.902344 19.949219 C 86.90625 20.296875 88.625 20.144531 90.023438 19.507812 C 90.355469 20.425781 90.394531 21.410156 90.144531 22.359375 L 88.246094 29.445312 C 87.929688 30.621094 87.375 31.691406 86.601562 32.625 C 85.277344 34.21875 83.082031 36.117188 80.136719 36.117188 C 77.097656 36.117188 74.851562 34.105469 73.503906 32.417969 C 72.824219 31.570312 72.332031 30.574219 72.03125 29.457031 L 70.199219 22.617188 C 70.019531 21.941406 70.390625 21.234375 71.066406 20.972656 C 74.800781 19.519531 77.863281 17.324219 80.21875 14.425781 C 79.679688 15.796875 78.976562 17.074219 78.105469 18.269531 C 77.886719 18.570312 77.875 18.976562 78.082031 19.289062 Z M 73.980469 35.480469 C 75.535156 36.808594 77.589844 37.902344 80.136719 37.902344 C 82.691406 37.902344 84.75 36.792969 86.292969 35.476562 L 86.292969 38.347656 C 86.292969 38.347656 86.292969 38.351562 86.292969 38.351562 C 86.292969 39.816406 84.273438 42.65625 82.492188 45.164062 C 81.679688 46.308594 80.855469 47.464844 80.136719 48.59375 C 79.417969 47.464844 78.59375 46.300781 77.785156 45.167969 C 76.003906 42.65625 73.980469 39.8125 73.980469 38.347656 Z M 76.328125 46.199219 C 77.3125 47.585938 78.320312 49.011719 79.109375 50.332031 C 78.386719 51.679688 77.917969 52.945312 77.917969 54.042969 L 77.917969 58.695312 C 73.992188 56.765625 73.4375 49.816406 73.359375 48.1875 C 74.203125 47.246094 75.136719 46.496094 76.144531 45.9375 C 76.207031 46.027344 76.265625 46.113281 76.328125 46.199219 Z M 93.160156 26.617188 C 92.640625 28.363281 91.195312 29.019531 90.140625 29.265625 L 91.296875 24.953125 C 91.859375 24.585938 92.375 24.171875 92.832031 23.707031 C 93.339844 24.671875 93.453125 25.648438 93.160156 26.617188 Z M 67.332031 9.773438 C 68.839844 5.519531 73.75 1.785156 77.839844 1.785156 C 81.371094 1.785156 83.125 3.625 83.191406 3.699219 C 83.433594 3.964844 83.808594 4.058594 84.148438 3.941406 C 86.902344 2.976562 91.613281 5.492188 93.328125 10.066406 C 94.773438 13.929688 94.53125 18.902344 92.03125 21.941406 C 92.167969 20.875 92.046875 19.796875 91.65625 18.773438 L 91.316406 17.894531 C 91.21875 17.636719 91.003906 17.4375 90.738281 17.359375 C 90.472656 17.277344 90.1875 17.324219 89.964844 17.488281 C 89.136719 18.074219 88.085938 18.34375 86.839844 18.347656 C 87.894531 16.800781 88.503906 14.800781 88.695312 12.289062 C 88.726562 11.882812 88.476562 11.507812 88.089844 11.375 C 87.707031 11.25 87.28125 11.394531 87.058594 11.734375 C 85.367188 14.328125 83.34375 16.125 80.902344 17.179688 C 82.160156 14.867188 82.925781 12.296875 83.234375 9.394531 C 83.28125 8.960938 83.007812 8.554688 82.585938 8.441406 C 82.160156 8.324219 81.71875 8.53125 81.539062 8.925781 C 79.269531 13.824219 75.53125 17.316406 70.417969 19.308594 C 69.195312 19.785156 68.429688 20.921875 68.382812 22.152344 C 68.292969 22.039062 68.210938 21.921875 68.128906 21.800781 C 68.128906 21.796875 68.125 21.792969 68.121094 21.789062 C 66.097656 18.734375 66.125 13.1875 67.332031 9.773438 Z M 67.113281 26.617188 C 66.824219 25.660156 66.929688 24.695312 67.421875 23.738281 C 67.878906 24.238281 68.398438 24.660156 68.984375 24.988281 L 70.128906 29.253906 C 69.074219 29.007812 67.632812 28.355469 67.113281 26.617188 Z M 69.890625 42.003906 C 70.605469 40.875 71.4375 40.074219 72.40625 39.578125 C 72.820312 40.992188 73.84375 42.636719 75.109375 44.46875 C 73.910156 45.15625 72.804688 46.074219 71.820312 47.222656 C 71.820312 47.222656 71.820312 47.222656 71.816406 47.226562 C 71.804688 47.242188 71.789062 47.253906 71.773438 47.269531 C 71.644531 47.425781 71.472656 47.425781 71.382812 47.40625 C 71.316406 47.394531 71.101562 47.34375 71.011719 47.109375 L 69.714844 43.75 C 69.492188 43.179688 69.5625 42.527344 69.890625 42.003906 Z M 53.132812 48.792969 C 55.0625 45.792969 63.671875 44.175781 67.855469 43.667969 C 67.894531 43.914062 67.957031 44.15625 68.046875 44.390625 L 69.34375 47.75 C 69.632812 48.503906 70.285156 49.03125 71.082031 49.167969 C 71.210938 49.191406 71.335938 49.199219 71.464844 49.199219 C 71.519531 49.199219 71.574219 49.1875 71.632812 49.183594 C 71.828125 51.566406 72.582031 56.53125 75.476562 59.195312 L 71.738281 59.195312 C 71.121094 59.195312 70.539062 59.375 70.035156 59.683594 L 68.722656 54.277344 C 68.589844 53.730469 68.25 53.265625 67.769531 52.972656 C 67.289062 52.679688 66.71875 52.589844 66.171875 52.722656 L 65.691406 52.839844 C 65.144531 52.972656 64.679688 53.3125 64.386719 53.792969 C 64.09375 54.277344 64.003906 54.84375 64.136719 55.390625 L 65.515625 61.058594 C 65.199219 61.074219 64.894531 61.113281 64.621094 61.175781 C 64.066406 61.3125 63.445312 61.78125 62.808594 62.433594 C 62.238281 59.34375 61.027344 56.566406 59.171875 54.164062 C 58.871094 53.773438 58.3125 53.703125 57.917969 54 C 57.527344 54.304688 57.457031 54.863281 57.757812 55.253906 C 59.734375 57.816406 60.914062 60.855469 61.277344 64.285156 C 59.832031 66.273438 58.472656 68.730469 57.683594 70.234375 C 57.003906 70.097656 56.304688 70.304688 55.773438 70.863281 L 48.449219 79.992188 C 49.265625 70.265625 51.164062 51.84375 53.132812 48.792969 Z M 56.554688 88.804688 C 54.765625 86.207031 51.644531 84.085938 48.707031 82.523438 L 57.113281 72.042969 C 57.203125 71.953125 57.304688 71.960938 57.355469 71.976562 C 57.441406 72 57.492188 72.054688 57.511719 72.136719 C 57.910156 73.855469 58.730469 75.140625 59.882812 75.851562 C 61.300781 76.722656 63.007812 76.828125 64.027344 76.792969 L 64.875 82.074219 L 58.0625 91.824219 C 57.613281 90.65625 57.113281 89.621094 56.554688 88.804688 Z M 66.035156 97.890625 C 64.636719 97.890625 63.5 96.753906 63.5 95.359375 L 63.5 87.160156 L 65.28125 84.609375 L 67.414062 97.890625 Z M 80.671875 87.613281 C 80.472656 87.871094 80.207031 87.832031 80.101562 87.804688 C 79.996094 87.777344 79.75 87.675781 79.703125 87.355469 L 79.304688 84.460938 L 81.292969 85.105469 C 81.386719 85.132812 81.476562 85.148438 81.566406 85.148438 C 81.945312 85.148438 82.292969 84.90625 82.417969 84.53125 C 82.570312 84.0625 82.3125 83.558594 81.84375 83.40625 L 78.21875 82.238281 C 78.003906 82.046875 77.769531 81.875 77.503906 81.746094 C 77.074219 81.539062 76.613281 81.4375 76.152344 81.433594 C 76.015625 81.25 75.96875 81.007812 76.042969 80.78125 C 76.164062 80.40625 76.566406 80.199219 76.949219 80.320312 L 82.398438 82.078125 C 82.488281 82.109375 82.582031 82.125 82.671875 82.125 C 83.050781 82.125 83.398438 81.882812 83.519531 81.503906 C 83.671875 81.035156 83.417969 80.53125 82.945312 80.382812 L 77.496094 78.621094 C 77.3125 78.5625 77.164062 78.433594 77.078125 78.265625 C 76.988281 78.09375 76.972656 77.902344 77.03125 77.71875 C 77.15625 77.34375 77.558594 77.136719 77.9375 77.257812 L 86.539062 80.035156 Z M 88.0625 78.066406 L 87.699219 78.535156 L 78.484375 75.558594 C 77.175781 75.136719 75.757812 75.855469 75.332031 77.171875 C 75.148438 77.738281 75.1875 78.339844 75.410156 78.886719 C 74.925781 79.1875 74.53125 79.644531 74.34375 80.230469 C 74.160156 80.800781 74.199219 81.402344 74.414062 81.933594 C 73.636719 82.425781 73.101562 83.199219 72.957031 84.117188 L 71.917969 90.761719 C 71.730469 91.96875 71.894531 93.191406 72.390625 94.304688 C 72.941406 95.535156 72.917969 96.929688 72.320312 98.136719 L 71.003906 100.8125 L 69.6875 100.8125 L 64.625 69.230469 L 98.511719 69.230469 L 97.699219 74.289062 C 97.570312 74.140625 97.441406 73.996094 97.316406 73.859375 C 96.519531 73.003906 95.230469 72.773438 94.183594 73.300781 C 93.535156 73.628906 93.0625 74.191406 92.847656 74.886719 C 92.636719 75.578125 92.714844 76.3125 93.066406 76.945312 L 93.3125 77.390625 C 92.949219 77.546875 92.617188 77.777344 92.351562 78.089844 C 92.152344 77.863281 91.925781 77.664062 91.65625 77.515625 L 91.417969 77.382812 C 90.296875 76.753906 88.851562 77.046875 88.0625 78.066406 Z M 96.632812 81.136719 L 96.664062 81.082031 C 97.007812 80.472656 97.09375 79.761719 96.902344 79.089844 C 96.710938 78.414062 96.269531 77.855469 95.632812 77.5 C 95.539062 77.449219 95.445312 77.414062 95.347656 77.375 L 94.625 76.078125 C 94.511719 75.871094 94.488281 75.636719 94.554688 75.410156 C 94.625 75.183594 94.78125 75.003906 94.988281 74.894531 C 95.335938 74.722656 95.746094 74.792969 96.007812 75.078125 C 97.585938 76.773438 98.554688 78.410156 98.667969 79.570312 C 98.757812 80.472656 98.523438 81.335938 98.210938 82.058594 C 98 81.804688 97.742188 81.582031 97.4375 81.414062 C 97.179688 81.269531 96.910156 81.1875 96.632812 81.136719 Z M 91.574219 100.8125 C 92.34375 100.429688 93.050781 99.933594 93.679688 99.351562 L 93.445312 100.8125 Z M 99.671875 96.820312 C 99.671875 97.570312 99.0625 98.183594 98.308594 98.183594 L 95.675781 98.183594 L 96 96.164062 L 96.582031 95.167969 C 97.269531 95.511719 98.355469 95.972656 99.671875 96.277344 Z M 106.648438 93.558594 C 103.0625 95.832031 99.109375 94.390625 97.488281 93.613281 L 100.363281 88.699219 C 100.71875 88.085938 100.8125 87.375 100.628906 86.6875 C 100.441406 86.003906 99.996094 85.4375 99.378906 85.089844 C 99.140625 84.957031 98.886719 84.878906 98.632812 84.824219 C 98.972656 84.386719 99.546875 83.5625 99.964844 82.496094 C 102.664062 82.179688 104.960938 82.628906 106.78125 83.855469 C 106.933594 83.957031 107.105469 84.003906 107.277344 84.003906 C 107.566406 84.003906 107.847656 83.867188 108.019531 83.609375 C 108.296875 83.203125 108.1875 82.644531 107.777344 82.371094 C 105.75 81.007812 103.285156 80.433594 100.433594 80.648438 C 100.472656 80.304688 100.480469 79.953125 100.457031 79.589844 C 102.148438 78.457031 104.109375 78.007812 106.433594 78.238281 C 106.921875 78.28125 107.363281 77.929688 107.410156 77.4375 C 107.460938 76.949219 107.101562 76.511719 106.609375 76.460938 C 104.132812 76.214844 101.917969 76.660156 100.007812 77.769531 C 99.789062 77.25 99.511719 76.738281 99.195312 76.25 L 100.4375 68.511719 L 103.234375 56.535156 C 103.347656 56.054688 103.050781 55.574219 102.570312 55.460938 C 102.089844 55.347656 101.609375 55.648438 101.496094 56.128906 L 98.851562 67.449219 L 91.792969 67.449219 L 91.792969 62.449219 C 91.792969 60.65625 90.332031 59.199219 88.539062 59.199219 L 84.800781 59.199219 C 87.691406 56.53125 88.449219 51.566406 88.644531 49.183594 C 88.699219 49.1875 88.753906 49.203125 88.8125 49.203125 C 88.9375 49.203125 89.066406 49.191406 89.195312 49.167969 C 89.992188 49.035156 90.640625 48.503906 90.933594 47.75 L 92.226562 44.394531 C 92.320312 44.15625 92.378906 43.914062 92.417969 43.667969 C 96.601562 44.175781 105.210938 45.792969 107.144531 48.792969 C 109.320312 52.167969 110.457031 70.753906 110.714844 77.597656 C 110.710938 81.320312 109.984375 91.449219 106.648438 93.558594 Z M 106.648438 93.558594 " fill-opacity="1" fill-rule="nonzero"/></g><path fill="#f4b6e6" d="M 77 63.742188 L 83.273438 63.742188 C 83.769531 63.742188 84.167969 63.34375 84.167969 62.851562 C 84.167969 62.355469 83.769531 61.957031 83.273438 61.957031 L 77 61.957031 C 76.503906 61.957031 76.105469 62.355469 76.105469 62.851562 C 76.105469 63.34375 76.503906 63.742188 77 63.742188 Z M 77 63.742188 " fill-opacity="1" fill-rule="nonzero"/><path fill="#f4b6e6" d="M 84.527344 64.859375 L 75.75 64.859375 C 75.253906 64.859375 74.855469 65.257812 74.855469 65.753906 C 74.855469 66.246094 75.253906 66.644531 75.75 66.644531 L 84.527344 66.644531 C 85.019531 66.644531 85.417969 66.246094 85.417969 65.753906 C 85.417969 65.257812 85.019531 64.859375 84.527344 64.859375 Z M 84.527344 64.859375 " fill-opacity="1" fill-rule="nonzero"/><g clip-path="url(#6985a4ae38)"><path fill="#f4b6e6" d="M 8.234375 96.242188 C 7.742188 96.242188 7.34375 96.640625 7.34375 97.136719 L 7.34375 111.59375 C 7.34375 112.085938 7.742188 112.484375 8.234375 112.484375 C 8.730469 112.484375 9.128906 112.085938 9.128906 111.59375 L 9.128906 97.136719 C 9.128906 96.640625 8.726562 96.242188 8.234375 96.242188 Z M 8.234375 96.242188 " fill-opacity="1" fill-rule="nonzero"/></g><g clip-path="url(#6323145ef7)"><path fill="#f4b6e6" d="M 42.566406 96.246094 C 42.074219 96.277344 41.703125 96.707031 41.738281 97.199219 L 42.734375 111.667969 C 42.769531 112.140625 43.160156 112.5 43.625 112.5 C 43.644531 112.5 43.667969 112.5 43.6875 112.5 C 44.179688 112.464844 44.550781 112.039062 44.519531 111.546875 L 43.519531 97.074219 C 43.484375 96.582031 43.050781 96.21875 42.566406 96.246094 Z M 42.566406 96.246094 " fill-opacity="1" fill-rule="nonzero"/></g></svg>