<svg xmlns="http://www.w3.org/2000/svg" xmlns:xlink="http://www.w3.org/1999/xlink" width="150" zoomAndPan="magnify" viewBox="0 0 112.5 112.499997" height="150" preserveAspectRatio="xMidYMid meet" version="1.0"><defs><clipPath id="cef9448f3b"><path d="M 0 0 L 112.003906 0 L 112.003906 112.003906 L 0 112.003906 Z M 0 0 " clip-rule="nonzero"/></clipPath><clipPath id="822ef14209"><path d="M 16.058594 0 L 96.308594 0 L 96.308594 112.003906 L 16.058594 112.003906 Z M 16.058594 0 " clip-rule="nonzero"/></clipPath></defs><g clip-path="url(#cef9448f3b)"><path fill="#ffffff" d="M 0 0 L 112.5 0 L 112.5 120 L 0 120 Z M 0 0 " fill-opacity="1" fill-rule="nonzero"/><path fill="#ffffff" d="M 0 0 L 112.5 0 L 112.5 112.5 L 0 112.5 Z M 0 0 " fill-opacity="1" fill-rule="nonzero"/><path fill="#ffffff" d="M 0 0 L 112.5 0 L 112.5 112.5 L 0 112.5 Z M 0 0 " fill-opacity="1" fill-rule="nonzero"/></g><g clip-path="url(#822ef14209)"><path fill="#f4b6e6" d="M 95.40625 0 L 16.960938 0 C 16.46875 0 16.066406 0.398438 16.066406 0.894531 L 16.066406 111.605469 C 16.066406 112.101562 16.46875 112.5 16.960938 112.5 L 95.40625 112.5 C 95.898438 112.5 96.296875 112.101562 96.296875 111.605469 L 96.296875 0.894531 C 96.296875 0.398438 95.898438 0 95.40625 0 Z M 94.511719 110.714844 L 17.851562 110.714844 L 17.851562 1.785156 L 94.511719 1.785156 Z M 94.511719 110.714844 " fill-opacity="1" fill-rule="nonzero"/></g><path fill="#f4b6e6" d="M 37.085938 20.410156 C 37.578125 20.410156 37.980469 20.011719 37.980469 19.519531 L 37.980469 15.242188 L 39.148438 15.242188 C 41.347656 15.242188 43.140625 13.445312 43.140625 11.242188 C 43.140625 9.035156 41.347656 7.242188 39.148438 7.242188 L 37.085938 7.242188 C 36.59375 7.242188 36.195312 7.640625 36.195312 8.132812 L 36.195312 19.519531 C 36.195312 20.011719 36.59375 20.410156 37.085938 20.410156 Z M 37.980469 9.027344 L 39.148438 9.027344 C 40.367188 9.027344 41.355469 10.019531 41.355469 11.242188 C 41.355469 12.460938 40.367188 13.457031 39.148438 13.457031 L 37.980469 13.457031 Z M 37.980469 9.027344 " fill-opacity="1" fill-rule="nonzero"/><path fill="#f4b6e6" d="M 46.375 20.410156 L 51.539062 20.410156 C 52.03125 20.410156 52.429688 20.011719 52.429688 19.519531 C 52.429688 19.023438 52.03125 18.625 51.539062 18.625 L 47.265625 18.625 L 47.265625 8.132812 C 47.265625 7.640625 46.867188 7.242188 46.375 7.242188 C 45.882812 7.242188 45.484375 7.640625 45.484375 8.132812 L 45.484375 19.519531 C 45.484375 20.011719 45.882812 20.410156 46.375 20.410156 Z M 46.375 20.410156 " fill-opacity="1" fill-rule="nonzero"/><path fill="#f4b6e6" d="M 68.054688 20.410156 C 68.546875 20.410156 68.945312 20.011719 68.945312 19.519531 L 68.945312 11.203125 L 74.523438 19.996094 C 74.691406 20.257812 74.976562 20.410156 75.277344 20.410156 C 75.359375 20.410156 75.441406 20.398438 75.523438 20.375 C 75.90625 20.261719 76.167969 19.914062 76.167969 19.519531 L 76.167969 8.132812 C 76.167969 7.640625 75.769531 7.242188 75.277344 7.242188 C 74.785156 7.242188 74.382812 7.640625 74.382812 8.132812 L 74.382812 16.449219 L 68.808594 7.65625 C 68.59375 7.320312 68.1875 7.167969 67.804688 7.277344 C 67.425781 7.386719 67.164062 7.738281 67.164062 8.132812 L 67.164062 19.519531 C 67.164062 20.011719 67.5625 20.410156 68.054688 20.410156 Z M 68.054688 20.410156 " fill-opacity="1" fill-rule="nonzero"/><path fill="#f4b6e6" d="M 55.359375 20.355469 C 55.820312 20.527344 56.335938 20.285156 56.503906 19.824219 L 57.792969 16.269531 L 61.792969 16.269531 L 63.082031 19.820312 C 63.214844 20.183594 63.554688 20.410156 63.921875 20.410156 C 64.019531 20.410156 64.125 20.394531 64.222656 20.355469 C 64.6875 20.1875 64.925781 19.675781 64.757812 19.214844 L 63.246094 15.046875 C 63.242188 15.035156 63.242188 15.027344 63.238281 15.015625 L 60.628906 7.828125 C 60.5 7.476562 60.167969 7.242188 59.792969 7.242188 C 59.417969 7.242188 59.082031 7.476562 58.953125 7.828125 L 54.828125 19.210938 C 54.660156 19.675781 54.898438 20.1875 55.359375 20.355469 Z M 59.792969 10.75 L 61.144531 14.484375 L 58.441406 14.484375 Z M 59.792969 10.75 " fill-opacity="1" fill-rule="nonzero"/><path fill="#f4b6e6" d="M 24.1875 43.179688 L 36.570312 43.179688 C 37.0625 43.179688 37.460938 42.777344 37.460938 42.285156 L 37.460938 29.867188 C 37.460938 29.375 37.0625 28.972656 36.570312 28.972656 L 24.1875 28.972656 C 23.695312 28.972656 23.296875 29.375 23.296875 29.867188 L 23.296875 42.285156 C 23.296875 42.777344 23.695312 43.179688 24.1875 43.179688 Z M 24.1875 43.179688 " fill-opacity="1" fill-rule="nonzero"/><path fill="#f4b6e6" d="M 24.1875 69.042969 L 36.570312 69.042969 C 37.0625 69.042969 37.460938 68.644531 37.460938 68.152344 L 37.460938 55.730469 C 37.460938 55.238281 37.0625 54.839844 36.570312 54.839844 L 24.1875 54.839844 C 23.695312 54.839844 23.296875 55.238281 23.296875 55.730469 L 23.296875 68.152344 C 23.296875 68.644531 23.695312 69.042969 24.1875 69.042969 Z M 24.1875 69.042969 " fill-opacity="1" fill-rule="nonzero"/><path fill="#f4b6e6" d="M 24.1875 94.910156 L 36.570312 94.910156 C 37.0625 94.910156 37.460938 94.511719 37.460938 94.019531 L 37.460938 81.597656 C 37.460938 81.105469 37.0625 80.707031 36.570312 80.707031 L 24.1875 80.707031 C 23.695312 80.707031 23.296875 81.105469 23.296875 81.597656 L 23.296875 94.019531 C 23.296875 94.511719 23.695312 94.910156 24.1875 94.910156 Z M 24.1875 94.910156 " fill-opacity="1" fill-rule="nonzero"/><path fill="#f4b6e6" d="M 42.910156 39.179688 C 42.910156 39.671875 43.308594 40.070312 43.800781 40.070312 L 47.035156 40.070312 L 47.035156 42.285156 C 47.035156 42.777344 47.433594 43.179688 47.925781 43.179688 L 53.089844 43.179688 C 53.582031 43.179688 53.980469 42.777344 53.980469 42.285156 L 53.980469 38 L 64.578125 38 L 64.578125 42.285156 C 64.578125 42.777344 64.976562 43.179688 65.46875 43.179688 L 70.632812 43.179688 C 71.125 43.179688 71.523438 42.777344 71.523438 42.285156 L 71.523438 40.070312 L 74.757812 40.070312 C 75.25 40.070312 75.652344 39.671875 75.652344 39.179688 L 75.652344 30.902344 C 75.652344 30.410156 75.25 30.007812 74.757812 30.007812 L 71.523438 30.007812 L 71.523438 27.792969 C 71.523438 27.300781 71.125 26.902344 70.632812 26.902344 L 65.46875 26.902344 C 64.976562 26.902344 64.578125 27.300781 64.578125 27.792969 L 64.578125 32.082031 L 53.980469 32.082031 L 53.980469 27.792969 C 53.980469 27.300781 53.582031 26.902344 53.089844 26.902344 L 47.925781 26.902344 C 47.433594 26.902344 47.035156 27.300781 47.035156 27.792969 L 47.035156 30.007812 L 43.800781 30.007812 C 43.308594 30.007812 42.910156 30.410156 42.910156 30.902344 Z M 73.867188 38.285156 L 71.523438 38.285156 L 71.523438 31.792969 L 73.867188 31.792969 Z M 66.363281 28.6875 L 69.742188 28.6875 L 69.742188 41.394531 L 66.363281 41.394531 Z M 64.578125 33.867188 L 64.578125 36.214844 L 53.980469 36.214844 L 53.980469 33.867188 Z M 48.820312 28.6875 L 52.195312 28.6875 L 52.195312 41.394531 L 48.820312 41.394531 Z M 44.691406 31.792969 L 47.035156 31.792969 L 47.035156 38.285156 L 44.691406 38.285156 Z M 44.691406 31.792969 " fill-opacity="1" fill-rule="nonzero"/><path fill="#f4b6e6" d="M 58.105469 49.527344 C 58.105469 46.75 55.855469 44.492188 53.089844 44.492188 C 50.316406 44.492188 48.0625 46.75 48.0625 49.527344 C 48.0625 52.296875 50.316406 54.554688 53.089844 54.554688 C 55.855469 54.554688 58.105469 52.300781 58.105469 49.527344 Z M 49.84375 49.527344 C 49.84375 47.734375 51.300781 46.277344 53.089844 46.277344 C 54.875 46.277344 56.324219 47.734375 56.324219 49.527344 C 56.324219 51.3125 54.875 52.769531 53.089844 52.769531 C 51.300781 52.769531 49.84375 51.3125 49.84375 49.527344 Z M 49.84375 49.527344 " fill-opacity="1" fill-rule="nonzero"/><path fill="#f4b6e6" d="M 62.261719 61.023438 C 63.433594 62.195312 65.457031 62.1875 66.617188 61.023438 C 67.820312 59.820312 67.820312 57.859375 66.617188 56.65625 L 63.347656 53.378906 C 62.246094 52.265625 60.550781 52.066406 59.222656 52.894531 L 51.425781 57.734375 L 50.8125 56.511719 C 50.253906 55.398438 49.140625 54.707031 47.902344 54.707031 C 47.449219 54.707031 46.988281 54.808594 46.574219 54.996094 C 44.972656 55.714844 44.226562 57.621094 44.914062 59.246094 L 46.351562 62.582031 C 46.957031 64.003906 48.445312 64.824219 49.972656 64.578125 L 53.613281 63.964844 L 54.84375 66.433594 L 51.890625 66.921875 C 50.273438 67.195312 49.097656 68.585938 49.097656 70.230469 L 49.097656 76.429688 C 49.097656 77.21875 49.40625 77.964844 49.964844 78.523438 C 50.523438 79.085938 51.265625 79.394531 52.054688 79.394531 C 53.683594 79.394531 55.007812 78.0625 55.007812 76.429688 L 55.007812 73.019531 L 58.867188 72.246094 L 61.535156 76.253906 C 62.132812 77.152344 63.125 77.6875 64.195312 77.6875 C 64.695312 77.6875 65.191406 77.566406 65.628906 77.34375 C 66.445312 76.9375 67.046875 76.199219 67.289062 75.320312 C 67.527344 74.445312 67.378906 73.503906 66.890625 72.742188 L 59.472656 61.160156 L 61.230469 59.988281 Z M 57.757812 60.160156 C 57.351562 60.429688 57.238281 60.972656 57.5 61.382812 L 65.390625 73.707031 C 65.613281 74.050781 65.675781 74.457031 65.566406 74.847656 C 65.460938 75.242188 65.199219 75.5625 64.824219 75.75 C 64.210938 76.066406 63.410156 75.847656 63.023438 75.261719 L 60.019531 70.753906 C 59.816406 70.453125 59.457031 70.308594 59.101562 70.375 L 53.941406 71.410156 C 53.523438 71.492188 53.222656 71.859375 53.222656 72.285156 L 53.222656 76.425781 C 53.222656 77.078125 52.699219 77.605469 52.054688 77.605469 C 51.742188 77.605469 51.445312 77.484375 51.222656 77.261719 C 51 77.039062 50.878906 76.742188 50.878906 76.425781 L 50.878906 70.230469 C 50.878906 69.460938 51.429688 68.8125 52.183594 68.683594 L 56.328125 67.996094 C 56.609375 67.949219 56.847656 67.773438 56.976562 67.519531 C 57.105469 67.269531 57.109375 66.96875 56.980469 66.71875 L 54.914062 62.574219 C 54.761719 62.269531 54.449219 62.082031 54.117188 62.082031 C 54.066406 62.082031 54.015625 62.085938 53.964844 62.09375 L 49.6875 62.816406 C 48.976562 62.925781 48.273438 62.546875 47.988281 61.878906 L 46.554688 58.542969 C 46.246094 57.8125 46.582031 56.953125 47.308594 56.625 C 48.042969 56.292969 48.875 56.628906 49.21875 57.3125 L 50.269531 59.410156 C 50.382812 59.632812 50.582031 59.800781 50.824219 59.867188 C 51.066406 59.9375 51.324219 59.902344 51.535156 59.769531 L 60.164062 54.410156 C 60.773438 54.035156 61.582031 54.128906 62.082031 54.636719 C 62.085938 54.640625 62.085938 54.640625 62.085938 54.640625 L 65.359375 57.917969 C 65.605469 58.164062 65.738281 58.492188 65.738281 58.839844 C 65.738281 59.1875 65.605469 59.515625 65.359375 59.761719 C 64.871094 60.253906 64.023438 60.261719 63.523438 59.761719 L 61.972656 58.210938 C 61.675781 57.910156 61.203125 57.859375 60.851562 58.097656 Z M 57.757812 60.160156 " fill-opacity="1" fill-rule="nonzero"/><path fill="#f4b6e6" d="M 71.664062 59.730469 L 89.210938 59.730469 C 89.703125 59.730469 90.101562 59.332031 90.101562 58.839844 C 90.101562 58.34375 89.703125 57.945312 89.210938 57.945312 L 71.664062 57.945312 C 71.171875 57.945312 70.773438 58.34375 70.773438 58.839844 C 70.773438 59.332031 71.171875 59.730469 71.664062 59.730469 Z M 71.664062 59.730469 " fill-opacity="1" fill-rule="nonzero"/><path fill="#f4b6e6" d="M 71.664062 65.9375 L 89.210938 65.9375 C 89.703125 65.9375 90.101562 65.539062 90.101562 65.042969 C 90.101562 64.550781 89.703125 64.152344 89.210938 64.152344 L 71.664062 64.152344 C 71.171875 64.152344 70.773438 64.550781 70.773438 65.042969 C 70.773438 65.539062 71.171875 65.9375 71.664062 65.9375 Z M 71.664062 65.9375 " fill-opacity="1" fill-rule="nonzero"/><path fill="#f4b6e6" d="M 79.921875 34.894531 L 90.242188 34.894531 C 90.734375 34.894531 91.132812 34.492188 91.132812 34 C 91.132812 33.507812 90.734375 33.105469 90.242188 33.105469 L 79.921875 33.105469 C 79.429688 33.105469 79.027344 33.507812 79.027344 34 C 79.027344 34.492188 79.429688 34.894531 79.921875 34.894531 Z M 79.921875 34.894531 " fill-opacity="1" fill-rule="nonzero"/><path fill="#f4b6e6" d="M 79.921875 41.105469 L 90.242188 41.105469 C 90.734375 41.105469 91.132812 40.707031 91.132812 40.214844 C 91.132812 39.722656 90.734375 39.320312 90.242188 39.320312 L 79.921875 39.320312 C 79.429688 39.320312 79.027344 39.722656 79.027344 40.214844 C 79.027344 40.707031 79.429688 41.105469 79.921875 41.105469 Z M 79.921875 41.105469 " fill-opacity="1" fill-rule="nonzero"/><path fill="#f4b6e6" d="M 63.410156 83.8125 L 45.859375 83.8125 C 45.367188 83.8125 44.96875 84.210938 44.96875 84.707031 C 44.96875 85.199219 45.367188 85.597656 45.859375 85.597656 L 63.410156 85.597656 C 63.902344 85.597656 64.300781 85.199219 64.300781 84.707031 C 64.300781 84.210938 63.902344 83.8125 63.410156 83.8125 Z M 63.410156 83.8125 " fill-opacity="1" fill-rule="nonzero"/><path fill="#f4b6e6" d="M 63.410156 90.019531 L 45.859375 90.019531 C 45.367188 90.019531 44.96875 90.417969 44.96875 90.910156 C 44.96875 91.40625 45.367188 91.804688 45.859375 91.804688 L 63.410156 91.804688 C 63.902344 91.804688 64.300781 91.40625 64.300781 90.910156 C 64.300781 90.417969 63.902344 90.019531 63.410156 90.019531 Z M 63.410156 90.019531 " fill-opacity="1" fill-rule="nonzero"/><path fill="#f4b6e6" d="M 88.175781 82.777344 C 86.546875 82.777344 85.222656 84.105469 85.222656 85.742188 C 85.222656 87.0625 86.09375 88.167969 87.285156 88.550781 L 87.285156 94.019531 C 87.285156 94.511719 87.683594 94.910156 88.175781 94.910156 C 88.667969 94.910156 89.066406 94.511719 89.066406 94.019531 L 89.066406 88.550781 C 90.261719 88.171875 91.132812 87.0625 91.132812 85.742188 C 91.132812 84.105469 89.808594 82.777344 88.175781 82.777344 Z M 88.175781 86.917969 C 87.53125 86.917969 87.007812 86.390625 87.007812 85.742188 C 87.007812 85.09375 87.53125 84.5625 88.175781 84.5625 C 88.824219 84.5625 89.351562 85.09375 89.351562 85.742188 C 89.351562 86.390625 88.824219 86.917969 88.175781 86.917969 Z M 88.175781 86.917969 " fill-opacity="1" fill-rule="nonzero"/><path fill="#f4b6e6" d="M 75.652344 84.707031 L 75.652344 83.667969 C 75.652344 83.175781 75.25 82.777344 74.757812 82.777344 C 74.265625 82.777344 73.867188 83.175781 73.867188 83.667969 L 73.867188 84.707031 C 73.867188 85.605469 73.328125 86.378906 72.558594 86.726562 L 72.558594 83.667969 C 72.558594 83.175781 72.15625 82.777344 71.664062 82.777344 C 71.171875 82.777344 70.773438 83.175781 70.773438 83.667969 L 70.773438 86.726562 C 70.527344 86.617188 70.300781 86.46875 70.101562 86.269531 C 69.683594 85.851562 69.457031 85.296875 69.457031 84.707031 L 69.457031 83.667969 C 69.457031 83.175781 69.054688 82.777344 68.5625 82.777344 C 68.070312 82.777344 67.671875 83.175781 67.671875 83.667969 L 67.671875 84.707031 C 67.671875 85.773438 68.085938 86.777344 68.84375 87.53125 C 69.382812 88.074219 70.050781 88.429688 70.773438 88.59375 L 70.773438 94.015625 C 70.773438 94.511719 71.171875 94.910156 71.664062 94.910156 C 72.15625 94.910156 72.558594 94.511719 72.558594 94.015625 L 72.558594 88.59375 C 74.324219 88.1875 75.652344 86.601562 75.652344 84.707031 Z M 75.652344 84.707031 " fill-opacity="1" fill-rule="nonzero"/><path fill="#f4b6e6" d="M 84.636719 94.96875 C 81.777344 96.617188 78.097656 96.625 75.203125 94.964844 C 74.773438 94.722656 74.230469 94.871094 73.984375 95.296875 C 73.738281 95.726562 73.890625 96.269531 74.316406 96.515625 C 76.027344 97.5 77.964844 98.019531 79.921875 98.019531 C 81.886719 98.019531 83.824219 97.5 85.527344 96.515625 C 85.953125 96.269531 86.101562 95.722656 85.855469 95.296875 C 85.609375 94.867188 85.0625 94.722656 84.636719 94.96875 Z M 84.636719 94.96875 " fill-opacity="1" fill-rule="nonzero"/><path fill="#f4b6e6" d="M 87.292969 80.417969 C 87.519531 80.417969 87.742188 80.335938 87.917969 80.164062 C 88.269531 79.820312 88.273438 79.253906 87.929688 78.902344 C 85.804688 76.730469 82.957031 75.535156 79.921875 75.535156 C 76.882812 75.535156 74.039062 76.730469 71.910156 78.902344 C 71.566406 79.253906 71.574219 79.820312 71.925781 80.164062 C 72.277344 80.511719 72.839844 80.503906 73.183594 80.152344 C 74.972656 78.324219 77.363281 77.320312 79.921875 77.320312 C 82.476562 77.320312 84.867188 78.324219 86.65625 80.152344 C 86.832031 80.332031 87.0625 80.417969 87.292969 80.417969 Z M 87.292969 80.417969 " fill-opacity="1" fill-rule="nonzero"/><path fill="#f4b6e6" d="M 74.707031 90.246094 C 74.339844 90.574219 74.3125 91.140625 74.640625 91.507812 C 75.984375 93.011719 77.910156 93.875 79.921875 93.875 C 81.941406 93.875 83.867188 93.011719 85.203125 91.503906 C 85.53125 91.136719 85.5 90.570312 85.128906 90.242188 C 84.761719 89.917969 84.199219 89.949219 83.871094 90.316406 C 82.875 91.445312 81.433594 92.089844 79.921875 92.089844 C 78.394531 92.089844 76.988281 91.457031 75.96875 90.316406 C 75.640625 89.949219 75.074219 89.917969 74.707031 90.246094 Z M 74.707031 90.246094 " fill-opacity="1" fill-rule="nonzero"/><path fill="#f4b6e6" d="M 76.992188 82.34375 C 78.734375 81.183594 81.105469 81.183594 82.851562 82.34375 C 83.003906 82.441406 83.175781 82.492188 83.34375 82.492188 C 83.632812 82.492188 83.914062 82.351562 84.085938 82.09375 C 84.359375 81.679688 84.246094 81.125 83.835938 80.855469 C 81.503906 79.304688 78.335938 79.304688 76.003906 80.855469 C 75.59375 81.125 75.480469 81.679688 75.753906 82.09375 C 76.027344 82.503906 76.582031 82.617188 76.992188 82.34375 Z M 76.992188 82.34375 " fill-opacity="1" fill-rule="nonzero"/></svg>