<svg xmlns="http://www.w3.org/2000/svg" xmlns:xlink="http://www.w3.org/1999/xlink" width="150" zoomAndPan="magnify" viewBox="0 0 112.5 112.499997" height="150" preserveAspectRatio="xMidYMid meet" version="1.0"><defs><clipPath id="ee21f7531b"><path d="M 0 0 L 112.003906 0 L 112.003906 112.003906 L 0 112.003906 Z M 0 0 " clip-rule="nonzero"/></clipPath><clipPath id="b9dd04836a"><path d="M 18.476562 0 L 53 0 L 53 34 L 18.476562 34 Z M 18.476562 0 " clip-rule="nonzero"/></clipPath><clipPath id="82afd785d7"><path d="M 65 62 L 87.476562 62 L 87.476562 85 L 65 85 Z M 65 62 " clip-rule="nonzero"/></clipPath><clipPath id="6284072838"><path d="M 18.476562 15 L 55 15 L 55 54 L 18.476562 54 Z M 18.476562 15 " clip-rule="nonzero"/></clipPath><clipPath id="05d5939cb7"><path d="M 18.476562 24 L 40 24 L 40 54 L 18.476562 54 Z M 18.476562 24 " clip-rule="nonzero"/></clipPath></defs><g clip-path="url(#ee21f7531b)"><path fill="#ffffff" d="M 0 0 L 112.5 0 L 112.5 120 L 0 120 Z M 0 0 " fill-opacity="1" fill-rule="nonzero"/><path fill="#ffffff" d="M 0 0 L 112.5 0 L 112.5 112.5 L 0 112.5 Z M 0 0 " fill-opacity="1" fill-rule="nonzero"/><path fill="#ffffff" d="M 0 0 L 112.5 0 L 112.5 112.5 L 0 112.5 Z M 0 0 " fill-opacity="1" fill-rule="nonzero"/></g><path fill="#b49a83" d="M 61.097656 35.265625 C 59.59375 32.207031 57.992188 30.359375 54.929688 31.863281 C 53.101562 32.753906 45.671875 37.136719 40.277344 41.175781 C 39.195312 35.242188 36 17.128906 33.917969 17.59375 C 31.539062 18.121094 31.472656 42.371094 32 44.734375 C 32.171875 45.464844 32.496094 46.113281 32.972656 46.6875 C 33.453125 47.261719 34.039062 47.699219 34.722656 47.996094 C 37.355469 50.398438 57.433594 44.386719 60.402344 42.929688 C 63.449219 41.441406 62.613281 38.328125 61.097656 35.265625 Z M 61.097656 35.265625 " fill-opacity="1" fill-rule="nonzero"/><g clip-path="url(#b9dd04836a)"><path fill="#f4b6e6" d="M 52.507812 16.914062 C 52.507812 17.464844 52.480469 18.019531 52.425781 18.570312 C 52.371094 19.121094 52.289062 19.667969 52.179688 20.214844 C 52.074219 20.757812 51.9375 21.292969 51.777344 21.824219 C 51.617188 22.355469 51.429688 22.875 51.21875 23.386719 C 51.003906 23.898438 50.765625 24.398438 50.507812 24.886719 C 50.246094 25.375 49.960938 25.851562 49.652344 26.3125 C 49.34375 26.773438 49.011719 27.21875 48.660156 27.644531 C 48.308594 28.074219 47.9375 28.484375 47.542969 28.875 C 47.152344 29.265625 46.742188 29.640625 46.3125 29.992188 C 45.882812 30.34375 45.4375 30.671875 44.976562 30.980469 C 44.515625 31.289062 44.039062 31.570312 43.550781 31.832031 C 43.0625 32.09375 42.5625 32.332031 42.046875 32.542969 C 41.535156 32.753906 41.011719 32.941406 40.484375 33.101562 C 39.953125 33.261719 39.414062 33.398438 38.871094 33.507812 C 38.324219 33.613281 37.777344 33.695312 37.226562 33.75 C 36.671875 33.804688 36.121094 33.832031 35.566406 33.832031 C 35.011719 33.832031 34.457031 33.804688 33.902344 33.75 C 33.351562 33.695312 32.804688 33.613281 32.257812 33.507812 C 31.714844 33.398438 31.179688 33.261719 30.648438 33.101562 C 30.117188 32.941406 29.59375 32.753906 29.082031 32.542969 C 28.570312 32.332031 28.066406 32.09375 27.578125 31.832031 C 27.089844 31.570312 26.613281 31.289062 26.152344 30.980469 C 25.691406 30.671875 25.246094 30.34375 24.816406 29.992188 C 24.386719 29.640625 23.976562 29.265625 23.585938 28.875 C 23.191406 28.484375 22.820312 28.074219 22.46875 27.644531 C 22.117188 27.21875 21.785156 26.773438 21.476562 26.3125 C 21.171875 25.851562 20.886719 25.375 20.625 24.886719 C 20.363281 24.398438 20.125 23.898438 19.914062 23.386719 C 19.699219 22.875 19.511719 22.355469 19.351562 21.824219 C 19.191406 21.292969 19.058594 20.757812 18.949219 20.214844 C 18.839844 19.667969 18.757812 19.121094 18.703125 18.570312 C 18.648438 18.019531 18.625 17.464844 18.625 16.914062 C 18.625 16.359375 18.648438 15.804688 18.703125 15.253906 C 18.757812 14.703125 18.839844 14.15625 18.949219 13.613281 C 19.058594 13.066406 19.191406 12.53125 19.351562 12 C 19.511719 11.472656 19.699219 10.949219 19.914062 10.4375 C 20.125 9.925781 20.363281 9.425781 20.625 8.9375 C 20.886719 8.449219 21.171875 7.972656 21.476562 7.511719 C 21.785156 7.050781 22.117188 6.609375 22.46875 6.179688 C 22.820312 5.75 23.191406 5.339844 23.585938 4.949219 C 23.976562 4.558594 24.386719 4.1875 24.816406 3.835938 C 25.246094 3.484375 25.691406 3.152344 26.152344 2.84375 C 26.613281 2.539062 27.089844 2.253906 27.578125 1.992188 C 28.066406 1.730469 28.570312 1.492188 29.082031 1.28125 C 29.59375 1.070312 30.117188 0.882812 30.648438 0.722656 C 31.179688 0.5625 31.714844 0.425781 32.257812 0.320312 C 32.804688 0.210938 33.351562 0.128906 33.902344 0.0742188 C 34.457031 0.0195312 35.011719 -0.0078125 35.566406 -0.0078125 C 36.121094 -0.0078125 36.671875 0.0195312 37.226562 0.0742188 C 37.777344 0.128906 38.324219 0.210938 38.871094 0.320312 C 39.414062 0.425781 39.953125 0.5625 40.484375 0.722656 C 41.011719 0.882812 41.535156 1.070312 42.046875 1.28125 C 42.5625 1.492188 43.0625 1.730469 43.550781 1.992188 C 44.039062 2.253906 44.515625 2.539062 44.976562 2.84375 C 45.4375 3.152344 45.882812 3.484375 46.3125 3.835938 C 46.742188 4.1875 47.152344 4.558594 47.542969 4.949219 C 47.9375 5.339844 48.308594 5.75 48.660156 6.179688 C 49.011719 6.609375 49.34375 7.050781 49.652344 7.511719 C 49.960938 7.972656 50.246094 8.449219 50.507812 8.9375 C 50.765625 9.425781 51.003906 9.925781 51.21875 10.4375 C 51.429688 10.949219 51.617188 11.472656 51.777344 12 C 51.9375 12.53125 52.074219 13.066406 52.179688 13.613281 C 52.289062 14.15625 52.371094 14.703125 52.425781 15.253906 C 52.480469 15.804688 52.507812 16.359375 52.507812 16.914062 Z M 52.507812 16.914062 " fill-opacity="1" fill-rule="nonzero"/></g><path fill="#b49a83" d="M 55.929688 58.511719 C 56.941406 60.796875 67.175781 78.898438 71.535156 89.222656 C 73.191406 93.140625 73.996094 95.941406 73.128906 96.324219 C 69.96875 97.710938 45.886719 66.6875 44.496094 63.53125 C 44.347656 63.160156 44.234375 62.777344 44.15625 62.382812 C 44.082031 61.988281 44.042969 61.589844 44.042969 61.1875 C 44.042969 60.785156 44.082031 60.386719 44.160156 59.996094 C 44.238281 59.601562 44.355469 59.21875 44.503906 58.847656 C 44.65625 58.472656 44.84375 58.121094 45.0625 57.785156 C 45.28125 57.449219 45.53125 57.136719 45.8125 56.847656 C 46.09375 56.5625 46.398438 56.300781 46.730469 56.074219 C 47.058594 55.84375 47.410156 55.648438 47.777344 55.488281 C 48.144531 55.324219 48.527344 55.199219 48.917969 55.113281 C 49.308594 55.023438 49.707031 54.972656 50.109375 54.960938 C 50.511719 54.949219 50.910156 54.976562 51.308594 55.042969 C 51.703125 55.109375 52.089844 55.210938 52.46875 55.351562 C 52.84375 55.492188 53.203125 55.664062 53.546875 55.875 C 53.890625 56.082031 54.210938 56.324219 54.507812 56.59375 C 54.804688 56.863281 55.070312 57.160156 55.3125 57.484375 C 55.550781 57.808594 55.757812 58.148438 55.929688 58.511719 Z M 55.929688 58.511719 " fill-opacity="1" fill-rule="nonzero"/><g clip-path="url(#82afd785d7)"><path fill="#809bd1" d="M 87.417969 73.921875 C 87.417969 74.652344 87.347656 75.371094 87.203125 76.085938 C 87.0625 76.796875 86.851562 77.488281 86.574219 78.160156 C 86.292969 78.832031 85.953125 79.472656 85.546875 80.078125 C 85.144531 80.679688 84.683594 81.242188 84.167969 81.753906 C 83.65625 82.269531 83.09375 82.726562 82.488281 83.132812 C 81.882812 83.535156 81.246094 83.878906 80.570312 84.15625 C 79.898438 84.433594 79.207031 84.644531 78.492188 84.785156 C 77.777344 84.929688 77.054688 85 76.328125 85 C 75.597656 85 74.878906 84.929688 74.164062 84.785156 C 73.449219 84.644531 72.757812 84.433594 72.082031 84.15625 C 71.410156 83.878906 70.769531 83.535156 70.164062 83.132812 C 69.558594 82.726562 69 82.269531 68.484375 81.753906 C 67.96875 81.242188 67.511719 80.679688 67.105469 80.078125 C 66.703125 79.472656 66.359375 78.832031 66.082031 78.160156 C 65.800781 77.488281 65.59375 76.796875 65.449219 76.085938 C 65.308594 75.371094 65.238281 74.652344 65.238281 73.921875 C 65.238281 73.195312 65.308594 72.476562 65.449219 71.761719 C 65.59375 71.050781 65.800781 70.355469 66.082031 69.683594 C 66.359375 69.011719 66.703125 68.375 67.105469 67.769531 C 67.511719 67.164062 67.96875 66.605469 68.484375 66.09375 C 69 65.578125 69.558594 65.117188 70.164062 64.714844 C 70.769531 64.3125 71.410156 63.96875 72.082031 63.691406 C 72.757812 63.414062 73.449219 63.203125 74.164062 63.0625 C 74.878906 62.917969 75.597656 62.847656 76.328125 62.847656 C 77.054688 62.847656 77.777344 62.917969 78.492188 63.0625 C 79.207031 63.203125 79.898438 63.414062 80.570312 63.691406 C 81.246094 63.96875 81.882812 64.3125 82.488281 64.714844 C 83.09375 65.117188 83.65625 65.578125 84.167969 66.09375 C 84.683594 66.605469 85.144531 67.164062 85.546875 67.769531 C 85.953125 68.375 86.292969 69.011719 86.574219 69.683594 C 86.851562 70.355469 87.0625 71.050781 87.203125 71.761719 C 87.347656 72.476562 87.417969 73.195312 87.417969 73.921875 Z M 87.417969 73.921875 " fill-opacity="1" fill-rule="nonzero"/></g><path fill="#809bd1" d="M 72.875 98 C 71.734375 98.453125 69.929688 98.59375 67.292969 97.304688 C 67.292969 97.304688 65.546875 96.175781 60.621094 95.558594 C 55.691406 94.941406 55.691406 92.484375 55.691406 92.484375 C 55.691406 92.324219 55.722656 92.175781 55.789062 92.03125 C 55.851562 91.886719 55.941406 91.757812 56.058594 91.652344 C 56.175781 91.546875 56.308594 91.464844 56.460938 91.414062 C 56.609375 91.363281 56.761719 91.34375 56.921875 91.355469 C 58.171875 91.355469 59.921875 90.734375 60.578125 89.605469 C 61.234375 88.480469 65.238281 89.605469 65.238281 89.605469 C 65.238281 89.605469 71.042969 92.183594 71.800781 89.820312 C 71.800781 89.820312 73.242188 89.996094 74.269531 95.4375 C 74.320312 95.699219 74.324219 95.960938 74.285156 96.222656 C 74.246094 96.488281 74.160156 96.734375 74.035156 96.96875 C 73.90625 97.203125 73.742188 97.40625 73.542969 97.585938 C 73.34375 97.761719 73.121094 97.898438 72.875 98 Z M 72.875 98 " fill-opacity="1" fill-rule="nonzero"/><path fill="#ffd5b0" d="M 70.578125 51.570312 C 68.320312 39.78125 55.691406 30.960938 59.46875 26.207031 C 61.027344 23.167969 63.800781 20.707031 63.800781 20.707031 C 63.800781 20.707031 48.804688 14.042969 50.660156 17.527344 C 51.6875 19.46875 51.128906 23.339844 50.433594 26.390625 C 49.953125 28.515625 49.101562 30.480469 47.875 32.28125 C 47.542969 32.757812 47.246094 33.253906 46.980469 33.765625 C 45.871094 35.910156 45.644531 41.355469 46.667969 47.457031 C 46.078125 47.753906 45.554688 48.144531 45.101562 48.621094 C 44.648438 49.101562 44.289062 49.644531 44.027344 50.25 C 43.765625 50.855469 43.613281 51.488281 43.570312 52.144531 C 43.53125 52.804688 43.601562 53.449219 43.789062 54.082031 C 43.972656 54.714844 44.261719 55.296875 44.652344 55.828125 C 45.042969 56.363281 45.511719 56.8125 46.0625 57.179688 C 46.609375 57.546875 47.203125 57.808594 47.84375 57.96875 C 48.484375 58.128906 49.132812 58.175781 49.792969 58.105469 C 52.265625 63.765625 56.078125 68.65625 61.546875 70.542969 C 76.125 75.5625 79.84375 63.90625 79.84375 63.90625 C 79.84375 63.90625 72.277344 60.445312 70.578125 51.570312 Z M 70.578125 51.570312 " fill-opacity="1" fill-rule="nonzero"/><path fill="#b49a83" d="M 72.84375 65.132812 C 72.640625 65.042969 68.402344 62.050781 65.722656 49.484375 L 65.808594 48.546875 C 68.425781 60.8125 74.796875 63.835938 74.839844 63.867188 Z M 72.84375 65.132812 " fill-opacity="1" fill-rule="nonzero"/><path fill="#809bd1" d="M 54.289062 65.449219 C 56.285156 67.753906 58.6875 69.554688 61.542969 70.542969 C 76.125 75.5625 80.03125 63.707031 80.03125 63.707031 C 80.03125 63.707031 76.828125 60.585938 76.328125 61.523438 C 72.679688 68.335938 57.691406 63.617188 54.289062 65.449219 Z M 54.289062 65.449219 " fill-opacity="1" fill-rule="nonzero"/><path fill="#ffd5b0" d="M 71.1875 66.90625 C 59.996094 69.675781 36.453125 59.914062 28.390625 64.523438 C 27.980469 64.707031 27.59375 64.929688 27.226562 65.191406 C 26.863281 65.449219 26.523438 65.746094 26.214844 66.070312 C 25.910156 66.398438 25.636719 66.75 25.398438 67.128906 C 25.15625 67.507812 24.957031 67.910156 24.796875 68.328125 C 24.636719 68.746094 24.519531 69.175781 24.445312 69.617188 C 24.367188 70.058594 24.335938 70.503906 24.347656 70.953125 C 24.359375 71.402344 24.414062 71.84375 24.511719 72.28125 C 24.609375 72.71875 24.75 73.140625 24.929688 73.550781 C 26.460938 77.03125 53.023438 111.238281 56.503906 109.710938 C 58.546875 108.816406 52.210938 95.851562 46.308594 84.570312 C 53.410156 87.949219 61.136719 90.398438 67.292969 90.378906 C 73.871094 90.351562 79.914062 87.0625 80.988281 80.582031 C 82.0625 74.097656 77.570312 65.328125 71.1875 66.90625 Z M 71.1875 66.90625 " fill-opacity="1" fill-rule="nonzero"/><path fill="#b49a83" d="M 39.671875 77.207031 C 41.828125 81.515625 46.347656 84.589844 46.316406 84.570312 C 53.414062 87.949219 61.140625 90.398438 67.296875 90.378906 C 72.589844 90.359375 77.535156 88.226562 79.828125 84.015625 C 66.675781 92.894531 48.515625 86.382812 39.671875 77.207031 Z M 39.671875 77.207031 " fill-opacity="1" fill-rule="nonzero"/><path fill="#b49a83" d="M 26.53125 68.902344 C 27.34375 65.539062 29.269531 64.164062 30.902344 63.617188 C 30.023438 63.789062 29.191406 64.09375 28.40625 64.523438 C 27.996094 64.707031 27.609375 64.929688 27.242188 65.191406 C 26.878906 65.449219 26.539062 65.746094 26.230469 66.070312 C 25.925781 66.398438 25.652344 66.75 25.414062 67.128906 C 25.171875 67.507812 24.972656 67.910156 24.8125 68.328125 C 24.652344 68.746094 24.535156 69.175781 24.460938 69.617188 C 24.382812 70.058594 24.351562 70.503906 24.363281 70.953125 C 24.375 71.402344 24.429688 71.84375 24.527344 72.28125 C 24.625 72.71875 24.765625 73.140625 24.945312 73.550781 C 26.476562 77.03125 53.039062 111.238281 56.519531 109.710938 C 56.804688 109.585938 56.925781 109.226562 56.910156 108.671875 C 50.3125 101.652344 25.191406 74.425781 26.53125 68.902344 Z M 26.53125 68.902344 " fill-opacity="1" fill-rule="nonzero"/><path fill="#809bd1" d="M 67.804688 44.085938 L 67.789062 44.085938 C 65.128906 39.113281 61.464844 34.875 59.742188 31.492188 C 54.960938 32.941406 48.65625 31.0625 48.605469 31.179688 L 47.0625 33.539062 C 55.074219 36.40625 56.613281 39.585938 56.324219 43.035156 C 56.25 43.914062 55.671875 44.664062 54.785156 44.703125 L 46.347656 45.097656 C 46.441406 45.875 46.558594 46.664062 46.691406 47.472656 C 46.128906 47.757812 45.628906 48.128906 45.191406 48.585938 C 44.75 49.039062 44.398438 49.554688 44.136719 50.128906 C 43.871094 50.703125 43.707031 51.304688 43.640625 51.929688 C 43.578125 52.558594 43.621094 53.179688 43.765625 53.796875 C 43.914062 54.410156 44.15625 54.984375 44.496094 55.519531 C 44.832031 56.050781 45.25 56.515625 45.746094 56.90625 C 46.242188 57.300781 46.785156 57.601562 47.382812 57.8125 C 47.980469 58.023438 48.59375 58.128906 49.226562 58.132812 C 49.378906 58.132812 49.539062 58.132812 49.683594 58.113281 C 50.601562 57.703125 65.390625 51.296875 69.050781 46.753906 C 68.8125 46.019531 68.054688 44.796875 67.804688 44.085938 Z M 67.804688 44.085938 " fill-opacity="1" fill-rule="nonzero"/><path fill="#ffd5b0" d="M 62.171875 9.292969 C 58.570312 9.460938 52.140625 14.050781 49.363281 16.15625 C 49.125 16.347656 48.925781 16.574219 48.773438 16.839844 C 48.617188 17.101562 48.511719 17.382812 48.460938 17.6875 C 48.410156 17.988281 48.414062 18.289062 48.472656 18.589844 C 48.53125 18.886719 48.640625 19.167969 48.804688 19.425781 C 51.65625 24.378906 59.019531 26.441406 62.972656 26.269531 C 63.53125 26.242188 64.078125 26.164062 64.621094 26.027344 C 65.164062 25.894531 65.6875 25.710938 66.191406 25.472656 C 66.695312 25.234375 67.175781 24.949219 67.625 24.621094 C 68.074219 24.289062 68.484375 23.917969 68.863281 23.503906 C 69.238281 23.09375 69.570312 22.648438 69.859375 22.171875 C 70.144531 21.695312 70.386719 21.191406 70.574219 20.667969 C 70.765625 20.144531 70.898438 19.605469 70.984375 19.054688 C 71.066406 18.503906 71.09375 17.949219 71.070312 17.394531 C 71.042969 16.835938 70.964844 16.285156 70.828125 15.746094 C 70.695312 15.203125 70.507812 14.683594 70.273438 14.175781 C 70.035156 13.671875 69.75 13.195312 69.417969 12.746094 C 69.085938 12.300781 68.714844 11.886719 68.300781 11.511719 C 67.890625 11.136719 67.445312 10.804688 66.964844 10.515625 C 66.488281 10.230469 65.988281 9.988281 65.460938 9.800781 C 64.9375 9.613281 64.398438 9.476562 63.847656 9.390625 C 63.292969 9.308594 62.738281 9.28125 62.179688 9.304688 Z M 62.171875 9.292969 " fill-opacity="1" fill-rule="nonzero"/><path fill="#fff4ba" d="M 55.863281 24.996094 C 54.882812 22 59.273438 21.449219 62.011719 20.710938 C 64.746094 19.976562 69.640625 18.570312 70.621094 21.566406 C 71.605469 24.566406 68.28125 30.828125 65.558594 31.574219 C 62.835938 32.316406 56.847656 27.992188 55.863281 24.996094 Z M 55.863281 24.996094 " fill-opacity="1" fill-rule="nonzero"/><path fill="#fff4ba" d="M 64.714844 9.558594 C 64.714844 9.558594 61.722656 15.8125 58.78125 17.359375 C 55.835938 18.902344 59.820312 21.34375 59.820312 21.34375 C 59.820312 21.34375 63.464844 24.988281 58.351562 25.730469 C 58.351562 25.730469 60.789062 30.191406 63.734375 28.921875 C 66.679688 27.65625 70.714844 24.960938 70.714844 24.960938 L 72.402344 21.964844 L 72.652344 15.726562 C 72.652344 15.726562 69.734375 8.53125 64.714844 9.558594 Z M 64.714844 9.558594 " fill-opacity="1" fill-rule="nonzero"/><path fill="#fff4ba" d="M 58.761719 22.542969 C 59.953125 22.398438 60.835938 21.546875 60.726562 20.644531 C 60.617188 19.738281 59.558594 19.121094 58.359375 19.265625 C 57.164062 19.410156 56.292969 20.25 56.402344 21.15625 C 56.511719 22.058594 57.5625 22.6875 58.761719 22.542969 Z M 58.761719 22.542969 " fill-opacity="1" fill-rule="nonzero"/><path fill="#ffd5b0" d="M 58.953125 22.363281 C 60.144531 22.21875 61.023438 21.367188 60.914062 20.460938 C 60.804688 19.558594 59.746094 18.941406 58.550781 19.082031 C 57.355469 19.226562 56.480469 20.070312 56.59375 20.972656 C 56.707031 21.878906 57.753906 22.507812 58.953125 22.363281 Z M 58.953125 22.363281 " fill-opacity="1" fill-rule="nonzero"/><path fill="#b49a83" d="M 46.832031 34.085938 C 45.855469 36.414062 45.691406 41.636719 46.675781 47.457031 C 45.46875 48.070312 44.589844 48.996094 44.042969 50.238281 C 47.320312 49.246094 49.90625 48.335938 50.894531 47.851562 C 51.277344 47.664062 51.640625 47.445312 51.988281 47.191406 C 52.332031 46.941406 52.652344 46.664062 52.945312 46.355469 C 53.242188 46.046875 53.507812 45.714844 53.746094 45.363281 C 53.984375 45.007812 54.1875 44.636719 54.359375 44.246094 C 54.53125 43.855469 54.667969 43.453125 54.769531 43.039062 C 54.871094 42.625 54.933594 42.207031 54.960938 41.78125 C 54.988281 41.355469 54.980469 40.929688 54.929688 40.507812 C 54.882812 40.082031 54.800781 39.667969 54.679688 39.257812 C 54.558594 38.847656 54.402344 38.453125 54.214844 38.074219 C 54.023438 37.691406 53.800781 37.328125 53.546875 36.984375 C 53.292969 36.644531 53.011719 36.324219 52.703125 36.03125 C 52.390625 35.738281 52.058594 35.476562 51.703125 35.242188 C 51.347656 35.003906 50.972656 34.804688 50.582031 34.632812 C 50.1875 34.464844 49.785156 34.332031 49.371094 34.234375 C 48.953125 34.136719 48.535156 34.074219 48.109375 34.046875 C 47.683594 34.023438 47.257812 34.035156 46.832031 34.085938 Z M 46.832031 34.085938 " fill-opacity="1" fill-rule="nonzero"/><g clip-path="url(#6284072838)"><path fill="#ffd5b0" d="M 54.019531 36.875 C 53.808594 36.445312 53.558594 36.042969 53.265625 35.664062 C 52.976562 35.28125 52.648438 34.933594 52.292969 34.621094 C 51.933594 34.304688 51.546875 34.027344 51.132812 33.785156 C 50.71875 33.546875 50.285156 33.347656 49.832031 33.195312 C 49.378906 33.039062 48.914062 32.929688 48.4375 32.867188 C 47.964844 32.804688 47.488281 32.789062 47.011719 32.816406 C 46.535156 32.847656 46.0625 32.925781 45.601562 33.046875 C 45.136719 33.171875 44.691406 33.335938 44.261719 33.546875 C 42.359375 34.484375 35.273438 38.632812 29.265625 42.882812 C 30.585938 37.796875 32.195312 31.1875 32.601562 27.3125 C 32.617188 27.203125 32.664062 27.113281 32.753906 27.042969 C 32.84375 26.972656 32.945312 26.949219 33.054688 26.964844 C 33.054688 26.964844 34.015625 26.921875 34.425781 26.675781 L 36.40625 25.488281 C 37.085938 25.070312 37.625 24.515625 38.019531 23.824219 C 38.1875 23.523438 38.394531 23.257812 38.644531 23.019531 C 39.175781 22.46875 39.824219 22.191406 40.589844 22.183594 C 40.808594 22.195312 40.945312 22.089844 40.988281 21.871094 C 41.011719 21.722656 40.980469 21.585938 40.894531 21.460938 C 40.808594 21.335938 40.6875 21.257812 40.539062 21.230469 C 39.789062 21.09375 38.488281 20.972656 38 21.640625 C 37.929688 21.738281 37.855469 21.832031 37.773438 21.917969 C 37.722656 22.007812 37.648438 22.0625 37.550781 22.085938 C 37.453125 22.113281 37.363281 22.097656 37.277344 22.046875 C 37.191406 21.996094 37.136719 21.921875 37.109375 21.824219 C 37.085938 21.730469 37.097656 21.636719 37.148438 21.550781 C 38 19.238281 38.765625 17.425781 37.742188 16.511719 C 36.828125 15.699219 33.574219 15.941406 32.0625 16.105469 C 31.832031 16.136719 31.628906 16.226562 31.453125 16.382812 C 31.28125 16.535156 31.164062 16.726562 31.105469 16.953125 L 29.65625 22.5 C 29.472656 23.214844 29.511719 23.921875 29.773438 24.613281 C 29.90625 24.953125 29.949219 25.304688 29.910156 25.664062 C 29.871094 26.027344 29.746094 26.359375 29.542969 26.660156 C 25.597656 32.425781 19.234375 46.003906 18.828125 47.828125 C 18.667969 48.578125 18.6875 49.324219 18.890625 50.0625 C 19.089844 50.804688 19.449219 51.453125 19.96875 52.019531 C 20.039062 52.105469 20.101562 52.195312 20.15625 52.289062 C 20.347656 52.675781 21.917969 53.253906 22.160156 53.308594 C 22.664062 53.421875 24.871094 53.203125 25.488281 53.144531 C 33.542969 52.382812 48.007812 47.933594 50.683594 46.621094 C 51.113281 46.410156 51.519531 46.160156 51.898438 45.871094 C 52.277344 45.582031 52.628906 45.257812 52.945312 44.898438 C 53.261719 44.539062 53.539062 44.152344 53.78125 43.738281 C 54.019531 43.324219 54.21875 42.890625 54.375 42.441406 C 54.527344 41.988281 54.636719 41.523438 54.699219 41.050781 C 54.765625 40.574219 54.78125 40.101562 54.75 39.621094 C 54.71875 39.144531 54.644531 38.675781 54.519531 38.214844 C 54.398438 37.75 54.230469 37.304688 54.019531 36.875 Z M 54.019531 36.875 " fill-opacity="1" fill-rule="nonzero"/></g><path fill="#809bd1" d="M 31.972656 109.199219 C 31.972656 109.199219 29.746094 106.878906 37.980469 104.867188 C 38.644531 104.707031 39.28125 104.472656 39.886719 104.160156 C 41.804688 103.1875 45.328125 100.953125 43.96875 98.234375 C 43.96875 98.234375 51.582031 106.890625 53.742188 104.390625 C 55.691406 102.136719 54.292969 100.820312 54.292969 100.820312 C 54.292969 100.820312 56.308594 99.882812 56.617188 100.902344 C 56.886719 101.800781 57.3125 107.332031 58.3125 108.835938 C 58.390625 108.953125 58.445312 109.078125 58.472656 109.21875 C 58.5 109.355469 58.5 109.492188 58.472656 109.628906 C 58.441406 109.769531 58.386719 109.894531 58.304688 110.007812 C 58.222656 110.121094 58.121094 110.214844 58 110.289062 C 56.84375 110.941406 54.035156 111.578125 47.253906 111.191406 C 46.875 111.171875 46.5 111.1875 46.125 111.238281 C 43.800781 111.53125 34.738281 112.496094 31.972656 109.199219 Z M 31.972656 109.199219 " fill-opacity="1" fill-rule="nonzero"/><g clip-path="url(#05d5939cb7)"><path fill="#b49a83" d="M 22.011719 47.171875 C 22.636719 45.71875 28.507812 30.949219 31.902344 24.121094 C 29.089844 25.058594 19.355469 45.546875 18.835938 47.832031 C 18.675781 48.582031 18.695312 49.328125 18.894531 50.066406 C 19.097656 50.804688 19.457031 51.457031 19.976562 52.023438 C 20.042969 52.109375 20.105469 52.199219 20.164062 52.289062 C 20.355469 52.679688 21.925781 53.257812 22.164062 53.3125 C 22.667969 53.421875 24.878906 53.207031 25.492188 53.148438 C 29.402344 52.785156 34.824219 51.539062 39.671875 50.210938 C 36.695312 51.003906 19.339844 53.3125 22.011719 47.171875 Z M 22.011719 47.171875 " fill-opacity="1" fill-rule="nonzero"/></g><path fill="#809bd1" d="M 80.996094 80.582031 C 82.070312 74.101562 77.558594 65.328125 71.1875 66.90625 C 68.542969 67.558594 65.210938 67.53125 61.558594 67.125 C 61.558594 67.125 58.207031 86.335938 71.789062 89.820312 C 76.441406 88.632812 80.171875 85.542969 80.996094 80.582031 Z M 80.996094 80.582031 " fill-opacity="1" fill-rule="nonzero"/><path fill="#809bd1" d="M 71.785156 89.875 C 70.289062 89.515625 68.910156 88.902344 67.640625 88.035156 C 66.375 87.167969 65.300781 86.101562 64.429688 84.839844 C 63.011719 82.804688 62.042969 80.230469 61.542969 77.175781 C 61.035156 73.824219 61.027344 70.472656 61.515625 67.121094 L 61.515625 67.089844 L 61.558594 67.089844 C 65.664062 67.527344 68.8125 67.457031 71.171875 66.871094 C 73.3125 66.34375 75.390625 66.933594 77.175781 68.585938 C 78.59375 69.878906 79.769531 71.816406 80.464844 74.03125 C 81.171875 76.171875 81.359375 78.355469 81.035156 80.585938 C 80.277344 85.175781 76.90625 88.558594 71.789062 89.867188 Z M 61.597656 67.183594 C 61.117188 70.511719 61.128906 73.839844 61.628906 77.164062 C 62.128906 80.199219 63.09375 82.761719 64.5 84.78125 C 65.363281 86.03125 66.425781 87.085938 67.679688 87.949219 C 68.9375 88.808594 70.304688 89.417969 71.785156 89.773438 C 76.851562 88.472656 80.191406 85.125 80.945312 80.578125 L 80.996094 80.578125 L 80.945312 80.578125 C 81.265625 78.363281 81.078125 76.191406 80.378906 74.066406 C 79.675781 71.882812 78.503906 69.945312 77.113281 68.648438 C 75.347656 67.023438 73.304688 66.4375 71.199219 66.960938 C 68.835938 67.539062 65.691406 67.617188 61.597656 67.183594 Z M 61.597656 67.183594 " fill-opacity="1" fill-rule="nonzero"/><path fill="#809bd1" d="M 67.875 88.136719 C 69.085938 88.910156 70.386719 89.472656 71.78125 89.820312 L 71.964844 89.773438 L 72.144531 89.726562 L 72.414062 89.648438 L 72.585938 89.59375 L 72.867188 89.503906 L 73.015625 89.453125 L 73.328125 89.347656 L 73.457031 89.300781 L 73.792969 89.171875 L 73.875 89.140625 C 74.433594 88.910156 74.972656 88.648438 75.496094 88.347656 L 75.539062 88.324219 L 75.878906 88.121094 L 75.941406 88.078125 C 76.046875 88.015625 76.144531 87.949219 76.253906 87.882812 L 76.335938 87.832031 L 76.613281 87.636719 L 76.703125 87.574219 L 76.964844 87.375 L 77.054688 87.304688 L 77.304688 87.101562 L 77.394531 87.027344 L 77.632812 86.816406 L 77.71875 86.738281 C 77.796875 86.664062 77.875 86.59375 77.949219 86.519531 L 78.03125 86.4375 C 78.109375 86.363281 78.179688 86.285156 78.253906 86.207031 C 78.28125 86.179688 78.308594 86.152344 78.332031 86.121094 L 78.546875 85.886719 L 78.621094 85.800781 L 78.828125 85.546875 L 78.894531 85.464844 C 78.964844 85.375 79.03125 85.289062 79.09375 85.199219 L 79.15625 85.117188 C 79.222656 85.023438 79.289062 84.929688 79.351562 84.832031 L 79.402344 84.757812 C 79.46875 84.660156 79.53125 84.554688 79.597656 84.445312 L 79.636719 84.382812 C 79.703125 84.273438 79.765625 84.160156 79.828125 84.042969 L 79.847656 84.011719 C 76.222656 86.441406 72.230469 87.816406 67.875 88.136719 Z M 67.875 88.136719 " fill-opacity="1" fill-rule="nonzero"/><path fill="#fff4ba" d="M 76.9375 24.398438 C 77.1875 24.09375 77.410156 23.769531 77.601562 23.421875 C 77.792969 23.078125 77.949219 22.71875 78.074219 22.34375 C 78.195312 21.96875 78.28125 21.585938 78.332031 21.191406 C 78.382812 20.800781 78.394531 20.410156 78.371094 20.015625 C 78.347656 19.621094 78.285156 19.234375 78.1875 18.851562 C 78.089844 18.46875 77.957031 18.097656 77.789062 17.742188 C 77.621094 17.382812 77.421875 17.046875 77.191406 16.726562 C 76.957031 16.40625 76.699219 16.113281 76.410156 15.84375 C 76.121094 15.570312 75.8125 15.332031 75.476562 15.121094 C 75.144531 14.90625 74.792969 14.730469 74.425781 14.582031 C 74.058594 14.4375 73.683594 14.328125 73.292969 14.253906 C 72.90625 14.179688 72.515625 14.144531 72.121094 14.144531 C 71.722656 14.144531 71.332031 14.179688 70.945312 14.253906 C 70.554688 14.328125 70.179688 14.4375 69.8125 14.582031 C 69.445312 14.730469 69.09375 14.90625 68.761719 15.121094 C 68.425781 15.332031 68.117188 15.570312 67.828125 15.84375 C 67.539062 16.113281 67.28125 16.40625 67.046875 16.726562 C 66.816406 17.046875 66.617188 17.382812 66.449219 17.742188 C 66.28125 18.097656 66.148438 18.46875 66.050781 18.851562 C 65.953125 19.234375 65.890625 19.621094 65.867188 20.015625 C 65.84375 20.410156 65.855469 20.800781 65.90625 21.191406 C 65.957031 21.585938 66.042969 21.96875 66.164062 22.34375 C 66.289062 22.71875 66.445312 23.078125 66.636719 23.421875 C 66.828125 23.769531 67.050781 24.09375 67.300781 24.398438 C 67.113281 24.835938 66.992188 25.292969 66.929688 25.765625 C 66.867188 26.238281 66.867188 26.710938 66.933594 27.183594 C 67.003906 27.65625 67.132812 28.109375 67.324219 28.546875 C 67.515625 28.984375 67.761719 29.386719 68.0625 29.757812 C 67.867188 30.1875 67.738281 30.636719 67.683594 31.105469 C 67.628906 31.574219 67.644531 32.039062 67.738281 32.503906 C 67.832031 32.96875 67.996094 33.40625 68.226562 33.816406 C 68.457031 34.226562 68.75 34.59375 69.097656 34.914062 C 68.941406 35.121094 68.804688 35.339844 68.695312 35.578125 C 68.582031 35.8125 68.496094 36.054688 68.433594 36.308594 C 68.371094 36.558594 68.335938 36.816406 68.324219 37.078125 C 68.316406 37.335938 68.332031 37.59375 68.378906 37.851562 C 68.421875 38.109375 68.492188 38.355469 68.585938 38.597656 C 68.683594 38.839844 68.800781 39.070312 68.945312 39.289062 C 69.085938 39.507812 69.25 39.707031 69.433594 39.890625 C 69.617188 40.074219 69.816406 40.238281 70.035156 40.382812 C 69.820312 40.652344 69.664062 40.953125 69.566406 41.285156 C 69.46875 41.617188 69.4375 41.953125 69.46875 42.300781 C 69.503906 42.644531 69.601562 42.96875 69.761719 43.273438 C 69.925781 43.578125 70.136719 43.84375 70.402344 44.066406 C 70.195312 44.308594 70.050781 44.582031 69.960938 44.886719 C 69.871094 45.195312 69.847656 45.503906 69.890625 45.816406 C 69.929688 46.132812 70.035156 46.425781 70.199219 46.695312 C 70.367188 46.96875 70.582031 47.191406 70.839844 47.375 C 70.699219 47.554688 70.597656 47.757812 70.539062 47.980469 C 70.480469 48.203125 70.46875 48.429688 70.507812 48.65625 C 70.542969 48.882812 70.625 49.09375 70.75 49.289062 C 70.878906 49.480469 71.039062 49.640625 71.230469 49.765625 C 71.097656 49.886719 70.992188 50.03125 70.917969 50.195312 C 70.84375 50.359375 70.800781 50.53125 70.796875 50.710938 C 70.789062 50.890625 70.820312 51.066406 70.882812 51.234375 C 70.949219 51.402344 71.042969 51.550781 71.171875 51.679688 C 71.296875 51.808594 71.441406 51.910156 71.609375 51.980469 C 71.773438 52.050781 71.949219 52.085938 72.128906 52.085938 C 72.308594 52.085938 72.484375 52.050781 72.648438 51.980469 C 72.816406 51.910156 72.960938 51.808594 73.085938 51.679688 C 73.210938 51.550781 73.308594 51.402344 73.371094 51.234375 C 73.4375 51.066406 73.46875 50.890625 73.460938 50.710938 C 73.457031 50.53125 73.414062 50.359375 73.339844 50.195312 C 73.265625 50.03125 73.160156 49.886719 73.023438 49.765625 C 73.21875 49.640625 73.378906 49.480469 73.503906 49.289062 C 73.632812 49.09375 73.714844 48.882812 73.75 48.65625 C 73.789062 48.429688 73.777344 48.203125 73.71875 47.980469 C 73.660156 47.757812 73.558594 47.554688 73.414062 47.375 C 73.675781 47.191406 73.890625 46.96875 74.054688 46.695312 C 74.222656 46.425781 74.324219 46.132812 74.367188 45.816406 C 74.410156 45.503906 74.386719 45.191406 74.296875 44.886719 C 74.207031 44.582031 74.058594 44.308594 73.851562 44.066406 C 74.117188 43.84375 74.328125 43.578125 74.488281 43.273438 C 74.648438 42.96875 74.746094 42.640625 74.78125 42.296875 C 74.816406 41.953125 74.785156 41.617188 74.6875 41.285156 C 74.589844 40.953125 74.433594 40.652344 74.21875 40.382812 C 74.4375 40.238281 74.636719 40.078125 74.820312 39.890625 C 75.003906 39.707031 75.167969 39.507812 75.3125 39.289062 C 75.453125 39.070312 75.574219 38.839844 75.667969 38.601562 C 75.765625 38.359375 75.832031 38.109375 75.878906 37.851562 C 75.921875 37.59375 75.9375 37.335938 75.929688 37.078125 C 75.921875 36.816406 75.882812 36.558594 75.824219 36.308594 C 75.761719 36.054688 75.671875 35.8125 75.5625 35.578125 C 75.449219 35.339844 75.3125 35.121094 75.15625 34.914062 C 75.503906 34.59375 75.792969 34.226562 76.027344 33.816406 C 76.257812 33.40625 76.421875 32.96875 76.515625 32.503906 C 76.609375 32.039062 76.628906 31.574219 76.570312 31.105469 C 76.515625 30.636719 76.390625 30.1875 76.191406 29.757812 C 76.492188 29.386719 76.738281 28.980469 76.929688 28.542969 C 77.117188 28.105469 77.246094 27.652344 77.3125 27.179688 C 77.378906 26.707031 77.378906 26.234375 77.316406 25.761719 C 77.25 25.289062 77.125 24.835938 76.9375 24.398438 Z M 76.9375 24.398438 " fill-opacity="1" fill-rule="nonzero"/><path fill="#809bd1" d="M 46.101562 111.222656 C 46.476562 111.175781 46.855469 111.160156 47.234375 111.179688 C 54.011719 111.566406 56.820312 110.925781 57.976562 110.277344 C 58.210938 110.140625 58.367188 109.941406 58.441406 109.679688 C 58.515625 109.417969 58.488281 109.167969 58.359375 108.929688 C 54.382812 110.554688 49.347656 110.128906 47.28125 109.863281 C 46.636719 109.777344 45.992188 109.808594 45.355469 109.957031 C 36.441406 112.003906 32.972656 108.882812 31.980469 107.632812 C 31.332031 108.550781 31.960938 109.191406 31.960938 109.191406 C 34.738281 112.496094 43.800781 111.53125 46.101562 111.222656 Z M 46.101562 111.222656 " fill-opacity="1" fill-rule="nonzero"/><path fill="#809bd1" d="M 70.886719 97.710938 C 65.648438 96.992188 68.730469 95.355469 62.058594 95.148438 C 56.851562 94.988281 56.144531 92.652344 56.082031 91.621094 C 55.832031 91.855469 55.703125 92.140625 55.691406 92.480469 C 55.691406 92.480469 55.691406 94.941406 60.621094 95.554688 C 65.550781 96.171875 67.292969 97.300781 67.292969 97.300781 C 69.929688 98.59375 71.734375 98.453125 72.875 97.996094 C 73.535156 97.730469 73.96875 97.257812 74.179688 96.582031 C 73.757812 97.03125 73.253906 97.351562 72.671875 97.554688 C 72.089844 97.753906 71.492188 97.804688 70.886719 97.710938 Z M 70.886719 97.710938 " fill-opacity="1" fill-rule="nonzero"/></svg>