<svg xmlns="http://www.w3.org/2000/svg" xmlns:xlink="http://www.w3.org/1999/xlink" width="100" zoomAndPan="magnify" viewBox="0 0 75 74.999997" height="100" preserveAspectRatio="xMidYMid meet" version="1.0"><defs><clipPath id="aef8385d67"><path d="M 14 4.585938 L 34 4.585938 L 34 18 L 14 18 Z M 14 4.585938 " clip-rule="nonzero"/></clipPath><clipPath id="f7b6d76482"><path d="M 3.347656 11 L 46 11 L 46 70.585938 L 3.347656 70.585938 Z M 3.347656 11 " clip-rule="nonzero"/></clipPath><clipPath id="1ebff66654"><path d="M 29 26 L 69 26 L 69 70.585938 L 29 70.585938 Z M 29 26 " clip-rule="nonzero"/></clipPath></defs><g clip-path="url(#aef8385d67)"><path fill="#ffffff" d="M 19.515625 8.742188 L 16.609375 8.742188 C 15.488281 8.742188 14.570312 9.660156 14.570312 10.78125 L 14.570312 14.964844 C 14.570312 16.085938 15.488281 17.003906 16.609375 17.003906 L 31.910156 17.003906 C 33.03125 17.003906 33.949219 16.085938 33.949219 14.964844 L 33.949219 10.78125 C 33.949219 9.660156 33.03125 8.742188 31.910156 8.742188 L 29.003906 8.742188 C 28.542969 6.445312 26.605469 4.761719 24.257812 4.761719 C 21.914062 4.761719 19.976562 6.445312 19.515625 8.742188 Z M 27.066406 9.761719 C 27.066406 10.324219 27.523438 10.78125 28.085938 10.78125 L 31.910156 10.78125 L 31.910156 14.964844 L 16.609375 14.964844 L 16.609375 10.78125 L 20.433594 10.78125 C 20.996094 10.78125 21.453125 10.324219 21.453125 9.761719 C 21.453125 8.128906 22.730469 6.804688 24.257812 6.804688 C 25.789062 6.804688 27.066406 8.128906 27.066406 9.761719 Z M 27.066406 9.761719 " fill-opacity="1" fill-rule="nonzero"/></g><path fill="#ffffff" d="M 15.078125 35.367188 L 17.117188 35.367188 L 17.117188 37.40625 L 15.078125 37.40625 Z M 15.078125 35.367188 " fill-opacity="1" fill-rule="nonzero"/><path fill="#ffffff" d="M 15.078125 55.769531 L 17.117188 55.769531 L 17.117188 57.808594 L 15.078125 57.808594 Z M 15.078125 55.769531 " fill-opacity="1" fill-rule="nonzero"/><path fill="#ffffff" d="M 15.078125 45.566406 L 17.117188 45.566406 L 17.117188 47.605469 L 15.078125 47.605469 Z M 15.078125 45.566406 " fill-opacity="1" fill-rule="nonzero"/><g clip-path="url(#f7b6d76482)"><path fill="#ffffff" d="M 6.40625 70.050781 L 38.695312 70.050781 C 38.03125 69.640625 37.417969 69.183594 36.804688 68.671875 C 36.703125 68.621094 36.652344 68.519531 36.550781 68.46875 C 36.398438 68.316406 36.195312 68.164062 36.042969 68.007812 L 6.40625 68.007812 C 5.847656 68.007812 5.386719 67.550781 5.386719 66.988281 L 5.386719 14.964844 C 5.386719 14.402344 5.847656 13.945312 6.40625 13.945312 L 8.449219 13.945312 L 8.449219 61.886719 C 8.449219 63.570312 9.824219 64.949219 11.507812 64.949219 L 33.289062 64.949219 C 31.246094 62.246094 29.613281 58.980469 28.695312 55.511719 C 28.695312 55.613281 28.746094 55.667969 28.746094 55.769531 L 22.21875 55.769531 C 21.65625 55.769531 21.199219 55.308594 21.199219 54.746094 C 21.199219 54.1875 21.65625 53.726562 22.21875 53.726562 L 28.238281 53.726562 C 28.238281 53.828125 28.289062 53.933594 28.289062 53.984375 C 28.238281 53.777344 28.1875 53.523438 28.136719 53.320312 C 27.933594 52.097656 27.828125 50.871094 27.828125 49.648438 L 22.21875 49.648438 C 21.65625 49.648438 21.199219 49.1875 21.199219 48.628906 C 21.199219 48.066406 21.65625 47.605469 22.21875 47.605469 L 27.933594 47.605469 C 27.984375 46.894531 28.136719 46.230469 28.238281 45.566406 L 22.21875 45.566406 C 21.65625 45.566406 21.199219 45.109375 21.199219 44.546875 C 21.199219 43.984375 21.65625 43.527344 22.21875 43.527344 L 28.851562 43.527344 C 29.71875 41.128906 31.042969 39.039062 32.929688 37.457031 C 34.714844 35.875 36.804688 34.90625 39.101562 34.550781 C 36.550781 32.355469 35.734375 29.246094 35.632812 28.835938 C 35.226562 27.257812 36.195312 25.574219 37.777344 25.113281 C 37.878906 25.0625 38.796875 24.859375 40.121094 24.707031 L 40.121094 13.945312 L 42.160156 13.945312 C 42.722656 13.945312 43.183594 14.402344 43.183594 14.964844 L 43.183594 24.808594 C 43.894531 24.910156 44.558594 25.0625 45.222656 25.316406 L 45.222656 14.964844 C 45.222656 13.28125 43.84375 11.902344 42.160156 11.902344 L 35.992188 11.902344 L 35.992188 14.964844 C 35.992188 17.207031 34.152344 19.042969 31.910156 19.042969 L 16.609375 19.042969 C 14.363281 19.042969 12.527344 17.207031 12.527344 14.964844 L 12.527344 11.902344 L 6.40625 11.902344 C 4.722656 11.902344 3.347656 13.28125 3.347656 14.964844 L 3.347656 66.988281 C 3.347656 68.671875 4.722656 70.050781 6.40625 70.050781 Z M 22.21875 22.105469 L 34.460938 22.105469 C 35.019531 22.105469 35.480469 22.5625 35.480469 23.125 C 35.480469 23.6875 35.019531 24.144531 34.460938 24.144531 L 22.21875 24.144531 C 21.65625 24.144531 21.199219 23.6875 21.199219 23.125 C 21.199219 22.5625 21.65625 22.105469 22.21875 22.105469 Z M 22.21875 26.183594 L 31.398438 26.183594 C 31.960938 26.183594 32.421875 26.644531 32.421875 27.207031 C 32.421875 27.765625 31.960938 28.226562 31.398438 28.226562 L 22.21875 28.226562 C 21.65625 28.226562 21.199219 27.765625 21.199219 27.207031 C 21.199219 26.644531 21.65625 26.183594 22.21875 26.183594 Z M 22.21875 33.324219 L 34.460938 33.324219 C 35.019531 33.324219 35.480469 33.785156 35.480469 34.347656 C 35.480469 34.90625 35.019531 35.367188 34.460938 35.367188 L 22.21875 35.367188 C 21.65625 35.367188 21.199219 34.90625 21.199219 34.347656 C 21.199219 33.785156 21.65625 33.324219 22.21875 33.324219 Z M 22.21875 37.40625 L 28.339844 37.40625 C 28.902344 37.40625 29.359375 37.867188 29.359375 38.425781 C 29.359375 38.988281 28.902344 39.445312 28.339844 39.445312 L 22.21875 39.445312 C 21.65625 39.445312 21.199219 38.988281 21.199219 38.425781 C 21.199219 37.867188 21.65625 37.40625 22.21875 37.40625 Z M 22.21875 57.808594 L 26.300781 57.808594 C 26.859375 57.808594 27.320312 58.265625 27.320312 58.828125 C 27.320312 59.390625 26.859375 59.847656 26.300781 59.847656 L 22.21875 59.847656 C 21.65625 59.847656 21.199219 59.390625 21.199219 58.828125 C 21.199219 58.265625 21.65625 57.808594 22.21875 57.808594 Z M 13.292969 24.757812 C 13.648438 24.347656 14.3125 24.246094 14.722656 24.605469 L 15.488281 25.214844 L 17.375 22.921875 C 17.730469 22.460938 18.394531 22.410156 18.800781 22.769531 C 19.261719 23.125 19.3125 23.789062 18.953125 24.195312 L 16.40625 27.257812 C 16.046875 27.664062 15.382812 27.765625 14.976562 27.410156 C 14.976562 27.410156 13.445312 26.132812 13.445312 26.132812 C 12.988281 25.828125 12.9375 25.164062 13.292969 24.757812 Z M 13.039062 35.367188 C 13.039062 34.246094 13.957031 33.324219 15.078125 33.324219 L 17.117188 33.324219 C 18.242188 33.324219 19.160156 34.246094 19.160156 35.367188 L 19.160156 37.40625 C 19.160156 38.527344 18.242188 39.445312 17.117188 39.445312 L 15.078125 39.445312 C 13.957031 39.445312 13.039062 38.527344 13.039062 37.40625 Z M 13.039062 45.566406 C 13.039062 44.445312 13.957031 43.527344 15.078125 43.527344 L 17.117188 43.527344 C 18.242188 43.527344 19.160156 44.445312 19.160156 45.566406 L 19.160156 47.605469 C 19.160156 48.730469 18.242188 49.648438 17.117188 49.648438 L 15.078125 49.648438 C 13.957031 49.648438 13.039062 48.730469 13.039062 47.605469 Z M 13.039062 55.769531 C 13.039062 54.644531 13.957031 53.726562 15.078125 53.726562 L 17.117188 53.726562 C 18.242188 53.726562 19.160156 54.644531 19.160156 55.769531 L 19.160156 57.808594 C 19.160156 58.929688 18.242188 59.847656 17.117188 59.847656 L 15.078125 59.847656 C 13.957031 59.847656 13.039062 58.929688 13.039062 57.808594 Z M 13.039062 55.769531 " fill-opacity="1" fill-rule="nonzero"/></g><g clip-path="url(#1ebff66654)"><path fill="#ffffff" d="M 48.792969 26.898438 C 48.488281 27.867188 48.230469 28.886719 48.078125 29.910156 C 47.464844 29.042969 46.597656 28.226562 45.527344 27.664062 C 42.367188 25.980469 38.4375 27.050781 38.285156 27.101562 C 37.722656 27.257812 37.417969 27.816406 37.570312 28.328125 C 37.621094 28.480469 38.589844 32.253906 41.804688 33.9375 C 43.589844 34.90625 45.785156 35.007812 47.773438 34.753906 C 47.824219 35.773438 47.925781 36.792969 48.078125 37.816406 C 47.007812 37.710938 45.886719 37.40625 44.457031 36.949219 C 40.785156 35.773438 37.0625 36.488281 34.257812 38.988281 C 30.6875 42.097656 29.15625 47.351562 30.175781 53.015625 C 31.449219 60.101562 35.992188 66.734375 41.191406 69.132812 C 43.945312 70.40625 46.753906 70.40625 49.25 69.132812 C 50.527344 69.792969 51.851562 70.101562 53.230469 70.101562 C 61.542969 70.101562 67.050781 60.050781 68.328125 53.015625 C 69.347656 47.351562 67.816406 42.148438 64.246094 38.988281 C 61.441406 36.539062 57.71875 35.773438 54.046875 36.949219 C 52.515625 37.457031 51.292969 37.761719 50.117188 37.816406 C 49.914062 36.640625 49.761719 35.417969 49.761719 34.191406 C 50.628906 34.5 51.800781 34.855469 53.027344 34.855469 C 55.882812 34.855469 58.484375 32.867188 59.808594 30.46875 C 60.066406 30.011719 59.910156 29.398438 59.453125 29.09375 C 59.300781 28.992188 56.085938 27.101562 52.925781 27.917969 C 51.902344 28.175781 50.984375 28.734375 50.273438 29.296875 C 50.425781 28.683594 50.578125 28.074219 50.730469 27.511719 C 50.882812 26.949219 50.578125 26.390625 50.066406 26.238281 C 49.507812 26.082031 48.945312 26.339844 48.792969 26.898438 Z M 42.722656 32.101562 C 41.242188 31.285156 40.375 29.808594 39.917969 28.835938 C 41.089844 28.683594 42.976562 28.632812 44.558594 29.449219 C 46.039062 30.265625 46.90625 31.746094 47.363281 32.714844 C 46.191406 32.867188 44.304688 32.96875 42.722656 32.101562 Z M 60.878906 43.117188 C 61.289062 42.761719 61.953125 42.8125 62.308594 43.222656 C 63.226562 44.292969 63.789062 45.566406 63.992188 46.945312 C 64.09375 47.503906 63.6875 48.015625 63.125 48.117188 C 62.613281 48.21875 62.054688 47.761719 61.953125 47.25 C 61.796875 46.230469 61.390625 45.3125 60.726562 44.546875 C 60.421875 44.140625 60.472656 43.476562 60.878906 43.117188 Z M 56.75 41.027344 C 57.207031 40.976562 57.667969 40.925781 58.175781 40.976562 C 58.738281 41.027344 59.144531 41.539062 59.09375 42.097656 C 59.042969 42.660156 58.535156 43.066406 57.972656 43.015625 C 57.617188 42.964844 57.257812 43.066406 56.902344 43.066406 C 56.390625 43.066406 55.984375 42.710938 55.882812 42.199219 C 55.78125 41.640625 56.1875 41.128906 56.75 41.027344 Z M 53.433594 29.910156 C 54.914062 29.550781 56.441406 29.960938 57.414062 30.367188 C 56.75 31.183594 55.679688 32.304688 54.199219 32.664062 C 52.71875 33.019531 51.191406 32.613281 50.21875 32.203125 C 50.882812 31.386719 52.003906 30.265625 53.433594 29.910156 Z M 53.433594 29.910156 " fill-opacity="1" fill-rule="nonzero"/></g></svg>