<svg xmlns="http://www.w3.org/2000/svg" xmlns:xlink="http://www.w3.org/1999/xlink" width="100" zoomAndPan="magnify" viewBox="0 0 75 74.999997" height="100" preserveAspectRatio="xMidYMid meet" version="1.0"><defs><clipPath id="c69f3cb5b2"><path d="M 12.296875 12.578125 L 62.546875 12.578125 L 62.546875 62.828125 L 12.296875 62.828125 Z M 12.296875 12.578125 " clip-rule="nonzero"/></clipPath></defs><g clip-path="url(#c69f3cb5b2)"><path fill="#ffffff" d="M 37.3125 29.824219 C 32.980469 29.847656 29.46875 33.40625 29.480469 37.738281 C 29.5 42.066406 33.046875 45.589844 37.375 45.582031 C 41.703125 45.578125 45.242188 42.035156 45.242188 37.703125 C 45.261719 36.886719 44.617188 36.214844 43.804688 36.199219 C 42.992188 36.179688 42.3125 36.824219 42.296875 37.640625 C 42.296875 37.664062 42.296875 37.679688 42.296875 37.703125 C 42.296875 40.445312 40.109375 42.628906 37.375 42.632812 C 34.636719 42.640625 32.445312 40.460938 32.4375 37.726562 C 32.425781 34.988281 34.589844 32.789062 37.328125 32.777344 C 38.148438 32.765625 38.800781 32.101562 38.796875 31.289062 C 38.792969 30.472656 38.128906 29.816406 37.316406 29.824219 C 37.3125 29.824219 37.3125 29.824219 37.3125 29.824219 Z M 37.363281 20.929688 C 28.121094 20.929688 20.589844 28.457031 20.589844 37.703125 C 20.589844 46.953125 28.121094 54.472656 37.363281 54.472656 C 46.613281 54.472656 54.136719 46.953125 54.136719 37.703125 C 54.136719 35.207031 53.578125 32.730469 52.507812 30.472656 C 52.164062 29.734375 51.289062 29.410156 50.542969 29.757812 C 49.800781 30.101562 49.480469 30.976562 49.824219 31.714844 C 49.828125 31.730469 49.835938 31.738281 49.839844 31.746094 C 50.726562 33.609375 51.1875 35.644531 51.1875 37.703125 C 51.1875 45.359375 45.019531 51.527344 37.363281 51.527344 C 29.714844 51.527344 23.542969 45.359375 23.542969 37.703125 C 23.542969 30.050781 29.714844 23.882812 37.363281 23.882812 C 39.390625 23.882812 41.378906 24.320312 43.207031 25.171875 C 43.929688 25.550781 44.820312 25.277344 45.203125 24.554688 C 45.582031 23.832031 45.304688 22.941406 44.585938 22.566406 C 44.539062 22.542969 44.503906 22.523438 44.460938 22.507812 C 42.238281 21.46875 39.820312 20.929688 37.363281 20.929688 Z M 54.789062 17.394531 L 54.910156 18.808594 C 54.96875 19.519531 55.535156 20.09375 56.25 20.15625 L 57.675781 20.277344 L 54.992188 22.980469 L 52.328125 22.738281 L 52.101562 20.082031 Z M 55.957031 12.632812 C 55.574219 12.644531 55.214844 12.804688 54.945312 13.070312 L 49.519531 18.484375 C 49.214844 18.789062 49.0625 19.222656 49.097656 19.652344 L 49.4375 23.46875 L 36.625 36.277344 C 36.003906 36.804688 35.921875 37.734375 36.449219 38.355469 C 36.972656 38.980469 37.902344 39.058594 38.527344 38.53125 C 38.59375 38.476562 38.652344 38.417969 38.703125 38.355469 L 51.449219 25.621094 L 55.414062 25.96875 C 55.84375 26.011719 56.277344 25.855469 56.582031 25.546875 L 61.996094 20.125 C 62.570312 19.546875 62.566406 18.613281 61.984375 18.039062 C 61.742188 17.796875 61.421875 17.652344 61.082031 17.621094 L 57.742188 17.324219 L 57.449219 13.984375 C 57.386719 13.214844 56.730469 12.621094 55.957031 12.632812 Z M 37.363281 12.632812 C 23.539062 12.632812 12.296875 23.878906 12.296875 37.703125 C 12.296875 51.53125 23.539062 62.769531 37.363281 62.769531 C 51.195312 62.769531 62.433594 51.53125 62.433594 37.703125 C 62.433594 34.257812 61.714844 30.847656 60.339844 27.691406 C 60.039062 26.9375 59.179688 26.570312 58.421875 26.875 C 57.671875 27.175781 57.300781 28.035156 57.609375 28.792969 C 57.617188 28.820312 57.628906 28.851562 57.644531 28.875 C 58.855469 31.664062 59.480469 34.667969 59.480469 37.703125 C 59.480469 49.933594 49.597656 59.824219 37.363281 59.824219 C 25.132812 59.824219 15.246094 49.933594 15.246094 37.703125 C 15.246094 25.472656 25.132812 15.585938 37.363281 15.585938 C 40.40625 15.585938 43.40625 16.207031 46.191406 17.425781 C 46.929688 17.777344 47.804688 17.464844 48.160156 16.730469 C 48.511719 15.996094 48.203125 15.113281 47.464844 14.761719 C 47.4375 14.75 47.410156 14.734375 47.378906 14.726562 C 44.222656 13.351562 40.8125 12.632812 37.363281 12.632812 " fill-opacity="1" fill-rule="nonzero"/></g></svg>