<svg xmlns="http://www.w3.org/2000/svg" xmlns:xlink="http://www.w3.org/1999/xlink" width="100" zoomAndPan="magnify" viewBox="0 0 75 74.999997" height="100" preserveAspectRatio="xMidYMid meet" version="1.0"><defs><clipPath id="a35596555d"><path d="M 18.664062 22 L 56.164062 22 L 56.164062 26 L 18.664062 26 Z M 18.664062 22 " clip-rule="nonzero"/></clipPath><clipPath id="d27cc28c62"><path d="M 31 6.664062 L 44 6.664062 L 44 17 L 31 17 Z M 31 6.664062 " clip-rule="nonzero"/></clipPath><clipPath id="530c7297dc"><path d="M 18.664062 48 L 56.164062 48 L 56.164062 53 L 18.664062 53 Z M 18.664062 48 " clip-rule="nonzero"/></clipPath><clipPath id="6e4614b8f9"><path d="M 31 57 L 44 57 L 44 67.414062 L 31 67.414062 Z M 31 57 " clip-rule="nonzero"/></clipPath></defs><path fill="#ffffff" d="M 51.8125 14.671875 C 51.8125 15.640625 51.035156 16.429688 50.074219 16.429688 L 24.722656 16.429688 C 23.761719 16.429688 22.984375 15.640625 22.984375 14.671875 C 22.984375 13.703125 23.761719 12.917969 24.722656 12.917969 L 50.074219 12.914062 C 51.035156 12.914062 51.8125 13.703125 51.8125 14.671875 Z M 51.8125 14.671875 " fill-opacity="1" fill-rule="nonzero"/><path fill="#ffffff" d="M 51.8125 19.226562 C 51.8125 20.199219 51.035156 20.984375 50.074219 20.984375 L 24.722656 20.984375 C 23.761719 20.984375 22.984375 20.199219 22.984375 19.230469 C 22.984375 18.257812 23.761719 17.472656 24.722656 17.472656 L 50.074219 17.472656 C 51.035156 17.472656 51.8125 18.257812 51.8125 19.226562 Z M 51.8125 19.226562 " fill-opacity="1" fill-rule="nonzero"/><g clip-path="url(#a35596555d)"><path fill="#ffffff" d="M 56.148438 23.785156 C 56.148438 24.753906 55.371094 25.539062 54.410156 25.539062 L 20.390625 25.539062 C 19.429688 25.539062 18.652344 24.753906 18.652344 23.785156 C 18.652344 22.8125 19.429688 22.027344 20.390625 22.027344 L 54.410156 22.027344 C 55.371094 22.027344 56.148438 22.8125 56.148438 23.785156 Z M 56.148438 23.785156 " fill-opacity="1" fill-rule="nonzero"/></g><path fill="#ffffff" d="M 41.746094 23.785156 L 41.746094 50.3125 C 41.746094 51.28125 40.96875 52.070312 40.007812 52.070312 L 34.792969 52.070312 C 33.832031 52.070312 33.054688 51.28125 33.054688 50.3125 L 33.054688 23.785156 C 33.054688 22.8125 33.832031 22.027344 34.792969 22.027344 L 40.007812 22.027344 C 40.96875 22.027344 41.746094 22.8125 41.746094 23.785156 Z M 38.269531 48.558594 L 38.269531 25.539062 L 36.53125 25.539062 L 36.53125 48.558594 Z M 38.269531 48.558594 " fill-opacity="1" fill-rule="nonzero"/><g clip-path="url(#d27cc28c62)"><path fill="#ffffff" d="M 43.488281 8.546875 L 43.488281 14.671875 C 43.488281 15.640625 42.710938 16.429688 41.75 16.429688 L 33.050781 16.429688 C 32.089844 16.429688 31.308594 15.640625 31.308594 14.671875 L 31.308594 8.546875 C 31.308594 7.578125 32.089844 6.789062 33.050781 6.789062 L 41.75 6.789062 C 42.710938 6.789062 43.488281 7.578125 43.488281 8.546875 Z M 40.007812 12.917969 L 40.007812 10.304688 L 34.789062 10.304688 L 34.789062 12.917969 Z M 40.007812 12.917969 " fill-opacity="1" fill-rule="nonzero"/></g><path fill="#ffffff" d="M 51.8125 59.425781 C 51.8125 60.394531 51.035156 61.183594 50.074219 61.183594 L 24.726562 61.183594 C 23.765625 61.183594 22.988281 60.394531 22.988281 59.425781 C 22.988281 58.453125 23.765625 57.667969 24.726562 57.667969 L 50.074219 57.667969 C 51.035156 57.667969 51.8125 58.453125 51.8125 59.425781 Z M 51.8125 59.425781 " fill-opacity="1" fill-rule="nonzero"/><path fill="#ffffff" d="M 51.8125 54.871094 C 51.8125 55.839844 51.035156 56.625 50.074219 56.625 L 24.726562 56.625 C 23.765625 56.625 22.988281 55.839844 22.988281 54.871094 C 22.988281 53.898438 23.765625 53.113281 24.726562 53.113281 L 50.074219 53.113281 C 51.035156 53.113281 51.8125 53.898438 51.8125 54.871094 Z M 51.8125 54.871094 " fill-opacity="1" fill-rule="nonzero"/><g clip-path="url(#530c7297dc)"><path fill="#ffffff" d="M 56.148438 50.3125 C 56.148438 51.28125 55.371094 52.070312 54.410156 52.070312 L 20.390625 52.070312 C 19.429688 52.070312 18.652344 51.285156 18.652344 50.3125 C 18.652344 49.34375 19.429688 48.558594 20.390625 48.558594 L 54.410156 48.558594 C 55.371094 48.558594 56.148438 49.34375 56.148438 50.3125 Z M 56.148438 50.3125 " fill-opacity="1" fill-rule="nonzero"/></g><g clip-path="url(#6e4614b8f9)"><path fill="#ffffff" d="M 43.488281 59.425781 L 43.488281 65.550781 C 43.488281 66.519531 42.710938 67.308594 41.75 67.308594 L 33.050781 67.308594 C 32.089844 67.308594 31.308594 66.519531 31.308594 65.550781 L 31.308594 59.425781 C 31.308594 58.453125 32.089844 57.667969 33.050781 57.667969 L 41.75 57.667969 C 42.710938 57.667969 43.488281 58.453125 43.488281 59.425781 Z M 40.011719 63.792969 L 40.011719 61.183594 L 34.789062 61.183594 L 34.789062 63.792969 Z M 40.011719 63.792969 " fill-opacity="1" fill-rule="nonzero"/></g></svg>